<svg width="70" height="70" viewBox="0 0 100 100" fill="none" xmlns="http://www.w3.org/2000/svg">
<circle cx="50" cy="50" r="50" fill="#238EFF"/>
<path d="M38.0035 58.8789C37.3843 59.4293 37.3285 60.3774 37.8789 60.9965C38.4293 61.6157 39.3774 61.6715 39.9965 61.1211L39 60L38.0035 58.8789ZM62.9197 40.1572C62.9683 39.3302 62.3374 38.6203 61.5104 38.5717L48.0337 37.7789C47.2067 37.7303 46.4968 38.3613 46.4482 39.1883C46.3995 40.0153 47.0305 40.7251 47.8575 40.7738L59.8368 41.4784L59.1321 53.4577C59.0835 54.2847 59.7145 54.9946 60.5414 55.0432C61.3684 55.0918 62.0783 54.4609 62.1269 53.6339L62.9197 40.1572ZM39 60L39.9965 61.1211L62.4188 41.1902L61.4223 40.0691L60.4257 38.948L38.0035 58.8789L39 60Z" fill="white"/>
</svg>
