<svg width="25" height="23" viewBox="0 0 33 23" fill="none" xmlns="http://www.w3.org/2000/svg">
<path d="M1.5 9.54687C0.671573 9.54687 -1.78814e-07 10.2184 -1.78814e-07 11.0469C-1.78814e-07 11.8753 0.671573 12.5469 1.5 12.5469V11.0469V9.54687ZM32.5607 12.1075C33.1464 11.5217 33.1464 10.572 32.5607 9.98621L23.0147 0.440272C22.4289 -0.145515 21.4792 -0.145515 20.8934 0.440272C20.3076 1.02606 20.3076 1.97581 20.8934 2.56159L29.3787 11.0469L20.8934 19.5322C20.3076 20.1179 20.3076 21.0677 20.8934 21.6535C21.4792 22.2393 22.4289 22.2393 23.0147 21.6535L32.5607 12.1075ZM1.5 11.0469V12.5469H31.5V11.0469V9.54687H1.5V11.0469Z" fill="#A6A6A6"/>
</svg>
