<svg width="110" height="65" viewBox="0 0 110 65" fill="none" xmlns="http://www.w3.org/2000/svg">
<path d="M102.53 29.6713C102.703 28.4638 102.793 27.2295 102.793 25.9744C102.793 11.6291 91.095 0 76.6654 0C62.2357 0 50.5382 11.6291 50.5382 25.9744C50.5382 40.3197 62.2357 51.9488 76.6654 51.9488C87.4189 51.9488 96.655 45.4902 100.663 36.2621L91.2949 19.7047H97.0437L102.53 29.6713Z" fill="#238EFF"/>
<path d="M93.1825 55.105C93.1825 50.4881 96.9473 46.7454 101.591 46.7454C106.235 46.7454 110 50.4881 110 55.105V56.6404C110 56.8702 109.991 57.0978 109.972 57.3228H104.955C105 57.1023 105.023 56.8741 105.023 56.6404V55.105C105.023 53.2206 103.487 51.6929 101.591 51.6929C99.6957 51.6929 98.1591 53.2206 98.1591 55.105V56.6404C98.1591 58.5249 99.6957 60.0525 101.591 60.0525C102.752 60.0525 103.779 59.4795 104.4 58.6024H109.767C108.879 62.2727 105.556 65 101.591 65C96.9473 65 93.1825 61.2573 93.1825 56.6404V55.105Z" fill="#001737"/>
<path d="M97.7301 57.3228V54.1667H109.914V57.3228H97.7301Z" fill="#001737"/>
<path d="M85.117 47.9396H90.0936V65H85.117V47.9396Z" fill="#001737"/>
<path d="M64.6958 52.1194V47.9396H81.5133L71.8175 60.8202H80.8268V65H63.1513L72.8471 52.1194H64.6958Z" fill="#001737"/>
<path d="M43.3307 55.105C43.3307 50.4881 47.0955 46.7454 51.7395 46.7454C56.3835 46.7454 60.1482 50.4881 60.1482 55.105V56.6404C60.1482 56.8702 60.1389 57.0978 60.1206 57.3228H55.103C55.148 57.1023 55.1716 56.8741 55.1716 56.6404V55.105C55.1716 53.2206 53.635 51.6929 51.7395 51.6929C49.844 51.6929 48.3073 53.2206 48.3073 55.105V56.6404C48.3073 58.5249 49.844 60.0525 51.7395 60.0525C52.9004 60.0525 53.9267 59.4795 54.5478 58.6024H59.9153C59.0274 62.2727 55.7038 65 51.7395 65C47.0955 65 43.3307 61.2573 43.3307 56.6404V55.105Z" fill="#001737"/>
<path d="M47.8783 57.3228V54.1667H60.0624V57.3228H47.8783Z" fill="#001737"/>
<path d="M26.9423 8.01837H21.9657V65H26.9423V58.6024L27.6287 57.8346L33.6349 65H40.2418L31.7473 55.4462L39.727 47.9396H33.2917L26.9423 54.1667V8.01837Z" fill="#001737"/>
<path d="M0 55.105C0 50.4881 3.76472 46.7454 8.40874 46.7454C13.0528 46.7454 16.8175 50.4881 16.8175 55.105V56.6404C16.8175 56.8702 16.8081 57.0978 16.7899 57.3228H11.7722C11.8172 57.1023 11.8409 56.8741 11.8409 56.6404V55.105C11.8409 53.2206 10.3043 51.6929 8.40874 51.6929C6.51322 51.6929 4.9766 53.2206 4.9766 55.105V56.6404C4.9766 58.5249 6.51322 60.0525 8.40874 60.0525C9.56968 60.0525 10.596 59.4795 11.2171 58.6024H16.5846C15.6967 62.2727 12.3731 65 8.40874 65C3.76472 65 0 61.2573 0 56.6404V55.105Z" fill="#001737"/>
<path d="M4.54758 57.3228V54.1667H16.7317V57.3228H4.54758Z" fill="#001737"/>
<path d="M37.4103 19.7047H32.4337V29.0879C32.4337 33.7048 36.1984 37.4475 40.8424 37.4475C45.4865 37.4475 49.2512 33.7048 49.2512 29.0879V19.7047H44.2746V29.7703C44.2746 31.6548 42.738 33.1824 40.8424 33.1824C38.9469 33.1824 37.4103 31.6548 37.4103 29.7703V19.7047Z" fill="#001737"/>
<path d="M53.8846 27.5525C53.8846 22.9356 57.6493 19.1929 62.2933 19.1929C66.6182 19.1929 70.1806 22.439 70.6497 26.6142H65.594C65.184 25.186 63.8615 24.1404 62.2933 24.1404C60.3978 24.1404 58.8612 25.668 58.8612 27.5525V29.0879C58.8612 30.9724 60.3978 32.5 62.2933 32.5C63.8615 32.5 65.184 31.4544 65.594 30.0262H70.6497C70.1806 34.2014 66.6182 37.4475 62.2933 37.4475C57.6493 37.4475 53.8846 33.7048 53.8846 29.0879V27.5525Z" fill="#001737"/>
<path d="M77.2231 19.7047H72.2465V37.4475H77.2231V31.0499L77.9095 30.2822L83.9158 37.4475H91.1232L82.1139 27.6378L90.0078 19.7047H83.5725L77.2231 25.8465V19.7047Z" fill="#001737"/>
</svg>
