<svg width="76" height="51" viewBox="0 0 76 51" fill="none" xmlns="http://www.w3.org/2000/svg">
<path d="M17.7987 50.0671C12.732 50.0671 7.46537 48.2671 4.06536 44.2671C0.665365 40.0005 -0.001302 36.4671 -0.001302 31.0005V19.2005C-0.001302 13.8671 0.532032 10.3338 4.06536 5.93379C7.1987 2.20045 12.3987 0.000453949 17.7987 0.133785C22.8654 0.000453949 28.0654 1.86712 31.532 5.93379C34.9987 10.0005 35.5987 13.7338 35.5987 19.2005V31.0005C35.5987 36.2005 34.9987 40.1338 31.532 44.2671C28.132 48.2005 23.1987 50.0671 17.7987 50.0671ZM17.7987 8.66712C14.7987 8.60045 11.8654 10.4005 10.3987 13.0005C9.33203 14.8005 9.26537 16.6671 9.26537 19.2005V31.0005C9.26537 33.2671 9.1987 35.5338 10.5987 37.6005C12.1987 40.0005 14.932 41.6005 17.7987 41.5338C20.732 41.6005 23.532 40.0005 25.0654 37.5338C26.3987 35.6005 26.332 33.8671 26.332 31.0005V19.2005C26.332 16.8005 26.4654 15.3338 25.332 13.0671C23.8654 10.4005 20.8654 8.60045 17.7987 8.66712ZM41.8029 16.2005C41.6029 11.5338 43.8029 6.93379 47.2029 3.93379C50.4695 1.06712 54.9362 0.133785 59.0029 0.133785C63.9362 0.133785 68.6029 1.80045 71.6029 5.66712C74.1362 8.60045 75.4029 12.5338 75.4029 16.4005C75.4029 23.2005 72.2695 26.4671 66.6029 31.4005L56.0029 40.5338H74.4029V49.0671H41.6029V40.5338L61.9362 23.3338C65.0029 20.7338 66.0695 18.3338 66.0695 16.2671C66.0695 14.5338 65.5362 12.8005 64.4029 11.4005C62.9362 9.60045 60.8695 8.66712 58.4695 8.66712C56.6029 8.66712 54.8029 9.40046 53.4695 10.6671C52.0029 12.0671 51.0695 14.1338 51.1362 16.2005H41.8029Z" fill="#F2F2F2"/>
</svg>
