<svg width="76" height="51" viewBox="0 0 76 51" fill="none" xmlns="http://www.w3.org/2000/svg">
<path d="M17.7987 50.0671C12.732 50.0671 7.46537 48.2671 4.06536 44.2671C0.665365 40.0005 -0.001302 36.4671 -0.001302 31.0005V19.2005C-0.001302 13.8671 0.532032 10.3338 4.06536 5.93379C7.1987 2.20045 12.3987 0.000453949 17.7987 0.133785C22.8654 0.000453949 28.0654 1.86712 31.532 5.93379C34.9987 10.0005 35.5987 13.7338 35.5987 19.2005V31.0005C35.5987 36.2005 34.9987 40.1338 31.532 44.2671C28.132 48.2005 23.1987 50.0671 17.7987 50.0671ZM17.7987 8.66712C14.7987 8.60045 11.8654 10.4005 10.3987 13.0005C9.33203 14.8005 9.26537 16.6671 9.26537 19.2005V31.0005C9.26537 33.2671 9.1987 35.5338 10.5987 37.6005C12.1987 40.0005 14.932 41.6005 17.7987 41.5338C20.732 41.6005 23.532 40.0005 25.0654 37.5338C26.3987 35.6005 26.332 33.8671 26.332 31.0005V19.2005C26.332 16.8005 26.4654 15.3338 25.332 13.0671C23.8654 10.4005 20.8654 8.60045 17.7987 8.66712ZM72.3362 24.6005C74.1362 27.4005 75.1362 30.6671 75.0029 34.0005C74.8695 38.3338 73.0029 42.6671 69.8695 45.6005C66.7362 48.5338 62.4695 50.1338 58.2695 50.0005C54.0695 50.1338 49.8029 48.4671 46.6695 45.5338C44.6029 43.6005 43.0695 41.0671 42.2695 38.2671L51.0695 35.9338C51.4029 37.2005 52.0029 38.3338 52.9362 39.2671C54.3362 40.6671 56.2695 41.4671 58.2695 41.4671C60.2695 41.4671 62.2029 40.6671 63.6029 39.2671C65.0029 37.8671 65.8029 35.9338 65.8029 34.0005C65.8029 32.0005 65.0695 30.0005 63.6029 28.5338C62.1362 27.0671 60.2695 26.4671 58.2695 26.4671C56.9362 26.4671 55.6695 26.8671 54.5362 27.5338L50.4695 20.4005L62.0695 9.66712H44.1362V1.13379H74.1362V10.0005L64.4029 19.0671C67.8029 20.0671 70.4029 22.0671 72.3362 24.6005Z" fill="#F2F2F2"/>
</svg>
