<svg width="81" height="51" viewBox="0 0 81 51" fill="none" xmlns="http://www.w3.org/2000/svg">
<path d="M20.4667 50.0671C15.4 50.0671 10.1333 48.2671 6.73333 44.2671C3.33333 40.0005 2.66667 36.4671 2.66667 31.0005V19.2005C2.66667 13.8671 3.2 10.3338 6.73333 5.93379C9.86667 2.20045 15.0667 0.000453949 20.4667 0.133785C25.5333 0.000453949 30.7333 1.86712 34.2 5.93379C37.6667 10.0005 38.2667 13.7338 38.2667 19.2005V31.0005C38.2667 36.2005 37.6667 40.1338 34.2 44.2671C30.8 48.2005 25.8667 50.0671 20.4667 50.0671ZM20.4667 8.66712C17.4667 8.60045 14.5333 10.4005 13.0667 13.0005C12 14.8005 11.9333 16.6671 11.9333 19.2005V31.0005C11.9333 33.2671 11.8667 35.5338 13.2667 37.6005C14.8667 40.0005 17.6 41.6005 20.4667 41.5338C23.4 41.6005 26.2 40.0005 27.7333 37.5338C29.0667 35.6005 29 33.8671 29 31.0005V19.2005C29 16.8005 29.1333 15.3338 28 13.0671C26.5333 10.4005 23.5333 8.60045 20.4667 8.66712ZM47.4708 1.13379H72.6708V9.60045H55.4708L54.8708 20.0671C57.0042 18.9338 59.4708 18.4005 61.5375 18.4005C65.2042 18.4005 69.0708 19.7338 72.0042 22.2005C75.5375 25.4005 77.0708 29.6005 76.8708 34.0005C76.8042 38.3338 74.8708 42.6671 71.8042 45.6005C68.6708 48.5338 64.4042 50.1338 60.2042 50.0005C56.0708 50.1338 51.7375 48.4671 48.6708 45.5338C46.6042 43.6005 45.0708 41.0671 44.2708 38.2671L53.0042 35.9338C53.3375 37.2005 54.0042 38.4005 54.9375 39.2671C56.3375 40.6671 58.2708 41.4671 60.2042 41.4671C62.2042 41.4671 64.1375 40.6671 65.5375 39.3338C66.9375 37.9338 67.7375 36.0005 67.7375 34.0005C67.7375 32.0671 66.9375 30.1338 65.5375 28.7338C64.1375 27.3338 62.2042 26.5338 60.2042 26.5338C58.2708 26.5338 56.3375 27.3338 54.9375 28.7338C54.4708 29.2005 54.0708 29.7338 53.8042 30.2671L46.0042 25.8005L47.4708 1.13379Z" fill="#F2F2F2"/>
</svg>
