<svg width="25" height="15" viewBox="0 0 32 15" fill="none" xmlns="http://www.w3.org/2000/svg">
      <path d="M31 6.36328C31.5523 6.36328 32 6.811 32 7.36328C32 7.91557 31.5523 8.36328 31 8.36328V7.36328V6.36328ZM0.292891 8.07039C-0.0976333 7.67986 -0.0976333 7.0467 0.292891 6.65617L6.65685 0.292213C7.04738 -0.0983118 7.68054 -0.0983118 8.07107 0.292213C8.46159 0.682737 8.46159 1.3159 8.07107 1.70643L2.41421 7.36328L8.07107 13.0201C8.46159 13.4107 8.46159 14.0438 8.07107 14.4343C7.68054 14.8249 7.04738 14.8249 6.65685 14.4343L0.292891 8.07039ZM31 7.36328V8.36328H0.999998V7.36328V6.36328H31V7.36328Z" fill="#000000"/>
  </svg>