<svg width="134" height="24" viewBox="0 0 134 24" fill="none" xmlns="http://www.w3.org/2000/svg">
<path d="M12.3363 17.1108C12.3363 19.0013 11.0678 20.0587 8.91132 20.0587H4.4398V14.0347H8.81618C10.9727 14.0347 12.3363 15.1883 12.3363 17.1108ZM11.7972 7.78638C11.7972 9.61282 10.5921 10.5741 8.49905 10.5741H4.4398V4.96662H8.49905C10.5921 4.96662 11.7972 5.99199 11.7972 7.78638ZM16.8395 17.6555C16.8395 15.028 15.0636 12.6889 12.5583 12.2403C14.7148 11.5354 16.3321 9.83712 16.3321 7.11348C16.3321 3.78104 13.7634 1.34579 9.13331 1.34579H0V23.7116H9.54557C14.1439 23.7116 16.8395 21.2123 16.8395 17.6555Z" fill="#979797"/>
<path d="M37.3444 14.8358C37.3444 9.2283 33.3803 5.67156 28.3062 5.67156C23.2322 5.67156 19.268 9.2283 19.268 14.8358C19.268 20.4112 23.1053 24 28.1794 24C33.2851 24 37.3444 20.4112 37.3444 14.8358ZM23.7713 14.8358C23.7713 11.279 25.896 9.58077 28.2428 9.58077C30.5895 9.58077 32.7777 11.279 32.7777 14.8358C32.7777 18.3605 30.5261 20.0908 28.1794 20.0908C25.8009 20.0908 23.7713 18.3605 23.7713 14.8358Z" fill="#979797"/>
<path d="M54.2377 18.6489C54.1108 12.1442 44.375 14.1629 44.375 10.9266C44.375 9.9012 45.2312 9.2283 46.8803 9.2283C48.6245 9.2283 49.7027 10.1575 49.8296 11.5354H54.0791C53.8254 8.01068 51.2567 5.67156 47.0071 5.67156C42.6625 5.67156 40.062 8.04272 40.062 10.9907C40.062 17.4953 49.9882 15.4766 49.9882 18.6489C49.9882 19.6742 49.0368 20.4753 47.2926 20.4753C45.5166 20.4753 44.2798 19.4499 44.1213 18.1041H39.6498C39.84 21.4045 42.9162 24 47.3243 24C51.6055 24 54.2377 21.6929 54.2377 18.6489Z" fill="#979797"/>
<path d="M71.5187 18.6489C71.3919 12.1442 61.656 14.1629 61.656 10.9266C61.656 9.9012 62.5123 9.2283 64.1613 9.2283C65.9055 9.2283 66.9838 10.1575 67.1106 11.5354H71.3601C71.1064 8.01068 68.5377 5.67156 64.2882 5.67156C59.9435 5.67156 57.3431 8.04272 57.3431 10.9907C57.3431 17.4953 67.2692 15.4766 67.2692 18.6489C67.2692 19.6742 66.3178 20.4753 64.5736 20.4753C62.7977 20.4753 61.5609 19.4499 61.4023 18.1041H56.9308C57.1211 21.4045 60.1972 24 64.6053 24C68.8865 24 71.5187 21.6929 71.5187 18.6489Z" fill="#979797"/>
<path d="M74.0216 14.8358C74.0216 20.4112 77.6368 24 82.7109 24C87.0872 24 90.0366 21.5007 90.9879 17.7196H86.1993C85.6602 19.3218 84.5185 20.1549 82.6792 20.1549C80.2056 20.1549 78.5565 18.2964 78.5565 14.8358C78.5565 11.3752 80.2056 9.48464 82.6792 9.48464C84.5185 9.48464 85.6919 10.4459 86.1993 11.9519H90.9879C90.0366 7.97864 87.0872 5.67156 82.7109 5.67156C77.6368 5.67156 74.0216 9.26035 74.0216 14.8358Z" fill="#979797"/>
<path d="M93.0988 14.7717C93.0988 20.3151 96.6507 24 101.09 24C103.881 24 105.879 22.6542 106.926 21.1162V23.7116H111.397V5.95995H106.926V8.49132C105.879 7.01736 103.945 5.67156 101.122 5.67156C96.6507 5.67156 93.0988 9.2283 93.0988 14.7717ZM106.926 14.8358C106.926 18.2003 104.706 20.0587 102.264 20.0587C99.8854 20.0587 97.6338 18.1362 97.6338 14.7717C97.6338 11.4072 99.8854 9.61282 102.264 9.61282C104.706 9.61282 106.926 11.4713 106.926 14.8358Z" fill="#979797"/>
<path d="M120.173 8.55541V0H115.733V23.7116H120.173V21.1802C121.251 22.7183 123.218 24 125.977 24C130.48 24 134 20.3151 134 14.7717C134 9.2283 130.48 5.67156 125.977 5.67156C123.313 5.67156 121.251 6.92123 120.173 8.55541ZM129.465 14.7717C129.465 18.1362 127.213 20.0587 124.803 20.0587C122.425 20.0587 120.173 18.2003 120.173 14.8358C120.173 11.4713 122.425 9.61282 124.803 9.61282C127.213 9.61282 129.465 11.4072 129.465 14.7717Z" fill="#979797"/>
</svg>
