<svg width="148" height="32" viewBox="0 0 148 32" fill="none" xmlns="http://www.w3.org/2000/svg">
<rect width="32" height="32" rx="6" fill="#979797" fill-opacity="0.12"/>
<path d="M14.4346 6.37988C15.7113 6.11856 17.0331 6.12335 18.3994 6.39453C19.9194 6.69627 21.2386 7.25091 22.3564 8.05859C23.4709 8.88339 24.3723 9.93233 25.0605 11.2051L23.4307 12.2324C23.4348 12.2403 23.4392 12.248 23.4434 12.2559L21.0635 13.7998C20.6918 13.0616 20.2161 12.4502 19.6357 11.9658C19.0664 11.4984 18.3661 11.1825 17.5352 11.0176C16.8427 10.8802 16.168 10.8716 15.5107 10.9922C14.8507 11.127 14.2465 11.3763 13.6992 11.7402C13.166 12.1069 12.7044 12.5839 12.3145 13.1709C11.9216 13.7722 11.6462 14.471 11.4883 15.2666C11.3304 16.0621 11.3199 16.8056 11.4561 17.4971C11.5895 18.2029 11.8326 18.8275 12.1855 19.3701C12.5522 19.9153 13.016 20.369 13.5771 20.7314C14.1357 21.1081 14.7617 21.3655 15.4541 21.5029C16.2435 21.6596 16.9532 21.6384 17.583 21.4385C18.2267 21.2413 18.8226 20.9241 19.3701 20.4863L19.8779 21.2412C19.9491 21.1899 20.0209 21.1384 20.0908 21.084L22.0566 23.9238C20.9923 24.7245 19.8452 25.269 18.6162 25.5576C17.4044 25.8496 16.0644 25.8501 14.5957 25.5586C13.2295 25.2874 12.0059 24.7876 10.9258 24.0586C9.86263 23.3327 8.98822 22.4571 8.30371 21.4336C7.61933 20.4102 7.14614 19.2601 6.88477 17.9834C6.61998 16.7236 6.62183 15.4187 6.88965 14.0693C7.15746 12.7203 7.65575 11.5058 8.38477 10.4258C9.11058 9.36269 9.98534 8.4882 11.0088 7.80371C12.0323 7.1192 13.1748 6.64468 14.4346 6.37988Z" fill="#979797"/>
<path d="M18.3715 9.85694C19.2809 10.0347 20.0793 10.3564 20.7668 10.8221C21.4734 11.2749 22.0433 11.8335 22.4766 12.498C22.9289 13.1496 23.2318 13.8879 23.3852 14.713C23.5546 15.5411 23.5504 16.4099 23.3727 17.3193C23.1949 18.2287 22.8716 19.0351 22.4028 19.7385C21.95 20.4451 21.3898 21.023 20.7223 21.4722C20.0738 21.9086 19.3355 22.2115 18.5073 22.3809C17.6982 22.5374 16.8389 22.5268 15.9296 22.349C15.0202 22.1713 14.2122 21.856 13.5057 21.4031C12.8182 20.9375 12.2483 20.3788 11.7959 19.7272C11.3626 19.0628 11.0613 18.3165 10.8919 17.4883C10.7385 16.6633 10.7507 15.7961 10.9284 14.8867C11.1062 13.9773 11.4215 13.1693 11.8743 12.4628C12.3431 11.7594 12.9017 11.1894 13.5502 10.753C14.2178 10.3038 14.9561 10.0009 15.7652 9.84436C16.5934 9.67498 17.4621 9.67917 18.3715 9.85694ZM16.4956 19.4534C16.8945 19.5313 17.2914 19.5344 17.6864 19.4625C18.1005 19.3778 18.4792 19.22 18.8225 18.9889C19.1658 18.7579 19.4578 18.4506 19.6984 18.0669C19.955 17.6864 20.1348 17.233 20.2377 16.7065C20.3406 16.18 20.3448 15.6922 20.2504 15.2431C20.172 14.7971 20.0172 14.4024 19.7862 14.0591C19.5552 13.7158 19.2622 13.4349 18.9074 13.2165C18.5716 12.9852 18.2043 12.8306 17.8055 12.7526C17.3907 12.6715 16.9842 12.6749 16.5861 12.7627C16.1911 12.8346 15.8219 12.986 15.4786 13.217C15.1353 13.4481 14.8353 13.7538 14.5787 14.1343C14.3381 14.518 14.1663 14.973 14.0634 15.4995C13.9605 16.026 13.9483 16.5122 14.0267 16.9582C14.1211 17.4073 14.2838 17.8036 14.5149 18.1469C14.7459 18.4902 15.0293 18.7775 15.3651 19.0087C15.704 19.2241 16.0808 19.3723 16.4956 19.4534Z" fill="#979797"/>
<path d="M22.0848 23.9076L16.8185 17.8014L18.2424 17.7823L18.2992 16.3275L24.4912 21.7745L22.6638 22.1333L22.0848 23.9076Z" fill="#979797"/>
<path fill-rule="evenodd" clip-rule="evenodd" d="M131.451 9.35242C131.061 9.35242 130.684 9.28372 130.317 9.14633C129.974 8.98604 129.665 8.77996 129.39 8.52808C129.138 8.2533 128.932 7.94417 128.772 7.60069C128.634 7.25722 128.566 6.87939 128.566 6.46722C128.566 6.05505 128.634 5.67723 128.772 5.33376C128.932 4.99028 129.138 4.6926 129.39 4.44072C129.665 4.16594 129.974 3.95985 130.317 3.82246C130.684 3.66218 131.061 3.58203 131.451 3.58203C132.252 3.58203 132.939 3.86826 133.512 4.44072C134.084 4.99028 134.37 5.66578 134.37 6.46722C134.37 7.26867 134.084 7.95562 133.512 8.52808C132.939 9.07764 132.252 9.35242 131.451 9.35242ZM129.218 28.6214V11.7911H133.718V28.6214H129.218ZM100.439 11.7911H104.664V13.9893H104.938C105.465 13.165 106.175 12.5009 107.068 11.9972C107.984 11.4934 108.992 11.2415 110.091 11.2415C111.373 11.2415 112.449 11.5392 113.319 12.1346C114.189 12.7299 114.808 13.4627 115.174 14.3328C115.701 13.4856 116.445 12.7643 117.407 12.1689C118.368 11.5507 119.536 11.2415 120.91 11.2415C121.941 11.2415 122.834 11.4133 123.589 11.7567C124.345 12.0773 124.963 12.5353 125.444 13.1306C125.948 13.726 126.326 14.4473 126.577 15.2945C126.829 16.1189 126.955 17.0234 126.955 18.008V28.6214H122.456V18.8323C122.456 16.5425 121.517 15.3976 119.639 15.3976C119.044 15.3976 118.517 15.535 118.059 15.8098C117.601 16.0616 117.212 16.4166 116.891 16.8745C116.594 17.3096 116.353 17.8363 116.17 18.4545C116.01 19.0728 115.93 19.7368 115.93 20.4467V28.6214H111.43V18.8323C111.43 16.5425 110.446 15.3976 108.476 15.3976C107.904 15.3976 107.4 15.535 106.965 15.8098C106.53 16.0616 106.164 16.4166 105.866 16.8745C105.568 17.3096 105.339 17.8363 105.179 18.4545C105.019 19.0728 104.938 19.7368 104.938 20.4467V28.6214H100.439V27.3358L104.038 25.8062L100.439 23.7367V11.7911ZM134.848 15.638H137.802V23.0227C137.802 24.9233 138.34 26.3888 139.416 27.4192C139.874 27.8772 140.435 28.2436 141.099 28.5183C141.786 28.7702 142.553 28.8962 143.4 28.8962C144.133 28.8962 144.797 28.8275 145.393 28.6901C146.011 28.5756 146.583 28.3924 147.11 28.1405L145.839 24.1906C145.633 24.3279 145.416 24.4424 145.187 24.534C144.958 24.6027 144.648 24.6371 144.259 24.6371C143.664 24.6371 143.206 24.4539 142.885 24.0875C142.656 23.8585 142.496 23.5837 142.404 23.2632C142.336 22.9197 142.301 22.5533 142.301 22.164V15.638H146.423V11.7911H142.301V6.63896H137.802V11.7911H134.848V15.638Z" fill="#979797"/>
<path d="M62.3185 24.2354C61.1048 25.7009 59.6737 26.8229 58.025 27.6015C56.3763 28.3571 54.533 28.7349 52.4951 28.7349C50.6632 28.7349 48.9573 28.4029 47.3773 27.7388C45.8202 27.0748 44.4692 26.1703 43.3243 25.0254C42.1794 23.8805 41.2749 22.5295 40.6108 20.9724C39.9468 19.3924 39.6147 17.6979 39.6147 15.8889C39.6147 14.08 39.9468 12.3969 40.6108 10.8399C41.2749 9.25987 42.1794 7.89742 43.3243 6.7525C44.4692 5.60759 45.8202 4.7031 47.3773 4.03905C48.9573 3.375 50.6632 3.04297 52.4951 3.04297C54.4643 3.04297 56.1932 3.38644 57.6815 4.0734C59.1928 4.76035 60.5324 5.75642 61.7002 7.06163L58.4372 10.2216C57.7044 9.37437 56.8572 8.69886 55.8955 8.1951C54.9566 7.69134 53.8346 7.43945 52.5294 7.43945C51.3845 7.43945 50.3083 7.64554 49.3007 8.05771C48.2932 8.44698 47.4116 9.00799 46.656 9.74074C45.9232 10.4735 45.3393 11.3665 44.9043 12.4198C44.4692 13.4503 44.2517 14.6066 44.2517 15.8889C44.2517 17.1713 44.4692 18.3391 44.9043 19.3924C45.3393 20.4228 45.9232 21.3044 46.656 22.0372C47.4116 22.7699 48.2932 23.3424 49.3007 23.7545C50.3083 24.1438 51.3845 24.3384 52.5294 24.3384C53.9033 24.3384 55.1169 24.0637 56.1703 23.5141C57.2465 22.9416 58.1968 22.1402 59.0211 21.1098L62.3185 24.2354Z" fill="#979797"/>
<path d="M65.1559 28.1854V3.59253H69.6554V28.1854H65.1559Z" fill="#979797"/>
<path d="M76.0153 8.9164C75.6261 8.9164 75.2482 8.8477 74.8819 8.71031C74.5384 8.55002 74.2293 8.34394 73.9545 8.09206C73.7026 7.81728 73.4965 7.50815 73.3362 7.16467C73.1988 6.8212 73.1301 6.44337 73.1301 6.0312C73.1301 5.61903 73.1988 5.24121 73.3362 4.89774C73.4965 4.55426 73.7026 4.25658 73.9545 4.0047C74.2293 3.72992 74.5384 3.52383 74.8819 3.38644C75.2482 3.22616 75.6261 3.14601 76.0153 3.14601C76.8168 3.14601 77.5037 3.43224 78.0762 4.0047C78.6487 4.55426 78.9349 5.22976 78.9349 6.0312C78.9349 6.83265 78.6487 7.5196 78.0762 8.09206C77.5037 8.64162 76.8168 8.9164 76.0153 8.9164ZM73.7828 28.1854V11.3551H78.2823V28.1854H73.7828Z" fill="#979797"/>
<path d="M90.1977 10.8055C91.5029 10.8055 92.6936 11.0345 93.7698 11.4925C94.8689 11.9275 95.8077 12.5458 96.5863 13.3472C97.3877 14.1258 98.006 15.0646 98.4411 16.1637C98.899 17.2628 99.128 18.465 99.128 19.7702C99.128 21.0754 98.899 22.2776 98.4411 23.3767C98.006 24.4758 97.3877 25.4261 96.5863 26.2276C95.8077 27.0061 94.8689 27.6244 93.7698 28.0823C92.6936 28.5174 91.5029 28.7349 90.1977 28.7349C88.8924 28.7349 87.6903 28.5174 86.5912 28.0823C85.5149 27.6244 84.5761 27.0061 83.7747 26.2276C82.9961 25.4261 82.3779 24.4758 81.9199 23.3767C81.4848 22.2776 81.2673 21.0754 81.2673 19.7702C81.2673 18.465 81.4848 17.2628 81.9199 16.1637C82.3779 15.0646 82.9961 14.1258 83.7747 13.3472C84.5761 12.5458 85.5149 11.9275 86.5912 11.4925C87.6903 11.0345 88.8924 10.8055 90.1977 10.8055ZM90.1977 24.5789C90.7701 24.5789 91.3197 24.4758 91.8463 24.2697C92.3959 24.0408 92.8768 23.7202 93.2889 23.308C93.7011 22.8958 94.0217 22.3921 94.2507 21.7967C94.5025 21.2014 94.6285 20.5259 94.6285 19.7702C94.6285 19.0146 94.5025 18.3391 94.2507 17.7437C94.0217 17.1484 93.7011 16.6446 93.2889 16.2324C92.8768 15.8203 92.3959 15.5111 91.8463 15.305C91.3197 15.0761 90.7701 14.9616 90.1977 14.9616C89.6023 14.9616 89.0413 15.0761 88.5146 15.305C87.988 15.5111 87.5185 15.8203 87.1064 16.2324C86.6942 16.6446 86.3622 17.1484 86.1103 17.7437C85.8813 18.3391 85.7668 19.0146 85.7668 19.7702C85.7668 20.5259 85.8813 21.2014 86.1103 21.7967C86.3622 22.3921 86.6942 22.8958 87.1064 23.308C87.5185 23.7202 87.988 24.0408 88.5146 24.2697C89.0413 24.4758 89.6023 24.5789 90.1977 24.5789Z" fill="#979797"/>
<path d="M99.128 29.2261L90.1977 22.2079L92.1609 21.7967L91.8463 19.7702L101.878 25.627L99.449 26.6168L99.128 29.2261Z" fill="#979797"/>
</svg>
