<svg width="45" height="33" viewBox="0 0 45 33" fill="none" xmlns="http://www.w3.org/2000/svg">
<path d="M27.39 29.9681L24.8775 33H34.3891L39.0103 28.3862L42.5548 31.9454L45 29.7044L41.3434 26.1012L44.6859 22.8496L42.3305 20.5646L39.0103 23.8382L35.3762 20.5646L33.2675 22.8496L36.5427 26.1012L32.8637 29.9681H27.39Z" fill="#979797"/>
<path d="M31.1431 5.64543L8.07581 33H22.9973L30.6253 24.0918L26.2651 24.1223L21.3912 29.811L15.1237 29.8802L33.3569 8.3252L31.1431 5.64543Z" fill="#979797"/>
<path d="M15.0881 23.5985L12.2526 21.2683L5.50412 29.145C3.54207 28.1742 3.36302 25.8544 3.59682 24.2602C3.68597 23.6523 4.00042 23.1069 4.40347 22.6365L19.8425 4.61638C20.1474 4.26043 20.5026 3.93943 20.9337 3.7453C23.4407 2.61623 25.4859 4.02306 26.2397 4.94275L20.9188 11.1532L23.6512 13.3987L30.7169 5.15173C29.6941 3.56551 26.884 0.38997 23.4132 0.0386155C19.9423 -0.312739 17.4259 1.82002 16.6016 2.93032L1.92994 20.3282C-0.171 23.1906 -0.150425 26.0947 0.139665 27.203C1.14148 31.8581 5.20359 32.9999 7.11043 33L15.0881 23.5985Z" fill="#979797"/>
</svg>
