<svg width="123" height="31" viewBox="0 0 153 31" fill="none" xmlns="http://www.w3.org/2000/svg">
<path d="M50.8118 18.1395L53.6462 18.9566C53.3398 19.9525 52.8546 20.8973 52.1651 21.7655C50.5309 23.7828 48.0539 24.7532 45.5004 24.7532C42.8447 24.7532 40.3933 23.7062 38.8611 21.7655C37.329 19.8759 36.7417 17.5777 36.7417 15.1774C36.7672 12.7004 37.3546 10.4022 38.8611 8.56368C40.4443 6.57191 42.8958 5.60156 45.5004 5.60156C48.1305 5.60156 50.5819 6.59745 52.1651 8.56368C52.9823 9.5851 53.493 10.7597 53.825 11.8833L50.8628 12.394C50.6586 11.6279 50.3521 10.9129 49.8925 10.3256C48.8711 8.99779 47.2113 8.30833 45.5004 8.30833C43.7895 8.30833 42.1297 8.99779 41.1593 10.3256C40.1124 11.6279 39.806 13.441 39.806 15.1774C39.806 16.9138 40.1124 18.7013 41.1593 20.0291C42.1297 21.357 43.7895 22.0464 45.5004 22.0209C47.2113 22.0464 48.8711 21.357 49.8925 20.0291C50.3011 19.4673 50.6075 18.829 50.8118 18.1395Z" fill="#979797"/>
<path d="M62.6874 24.7532C60.6701 24.7532 58.7549 23.9871 57.5037 22.4805C56.329 21.025 55.8694 19.3141 55.8694 17.4756C55.8694 15.5859 56.4056 13.824 57.5037 12.4706C58.7294 10.9896 60.6701 10.198 62.6874 10.198C64.6791 10.198 66.6198 10.9385 67.8455 12.4706C69.0457 13.9261 69.5053 15.637 69.5053 17.4756C69.5053 19.3907 69.0202 20.9995 67.8455 22.4805C66.5943 24.0127 64.7302 24.7532 62.6874 24.7532ZM65.5729 20.7186C66.2368 19.8504 66.4666 18.6502 66.4666 17.4756C66.4666 16.3009 66.2368 15.0752 65.5729 14.207C64.909 13.3388 63.8365 12.9047 62.6874 12.9047C61.5127 12.9047 60.4402 13.3388 59.8019 14.207C59.1379 15.0752 58.9081 16.3009 58.9081 17.4756C58.9081 18.6502 59.1379 19.8504 59.8019 20.7186C60.4402 21.5868 61.5127 22.0464 62.6874 22.0464C63.8365 22.0464 64.909 21.5868 65.5729 20.7186Z" fill="#979797"/>
<path d="M82.8365 11.5769C84.5729 13.0835 84.8538 15.0752 84.8282 17.5266V24.3702H81.9172V17.5266C81.9172 15.969 81.7129 14.5901 80.7426 13.7474C80.1808 13.2367 79.3636 12.9813 78.3933 13.0069C77.6528 13.0324 77.0144 13.2622 76.4781 13.6708C75.9164 14.1304 75.5333 14.8454 75.3801 15.6626C75.2269 16.3775 75.2014 17.3734 75.2014 18.3438V24.3702H72.3158V10.581H74.8694V11.7556L74.946 11.679C76.0185 10.7342 77.4485 10.2746 78.7508 10.2235C80.1808 10.1469 81.7384 10.6576 82.8365 11.5769Z" fill="#979797"/>
<path d="M96.5044 10.581H99.3899L94.3594 24.3702H91.4739L86.4689 10.581H89.3544L92.9294 20.7952L96.5044 10.581Z" fill="#979797"/>
<path d="M103.678 18.2672C103.78 19.1609 104.01 20.0547 104.521 20.7186C105.185 21.5868 106.257 22.0464 107.406 22.0464C108.556 22.0464 109.602 21.5868 110.266 20.7186C110.42 20.5143 110.496 20.3355 110.598 20.1568L113.458 21.3825C113.229 21.7911 112.973 22.1741 112.667 22.5316C111.364 24.0382 109.398 24.8298 107.406 24.7532C105.389 24.6766 103.474 23.9871 102.223 22.4805C101.048 21.025 100.563 19.2631 100.588 17.4756C100.64 15.6115 101.074 13.8751 102.223 12.4706C103.474 10.964 105.389 10.198 107.406 10.198C109.424 10.198 111.313 10.9385 112.565 12.4706C113.714 13.8751 114.199 15.6626 114.199 17.4756C114.199 17.7309 114.173 18.0118 114.148 18.2672H103.678ZM107.406 12.9047C106.257 12.8792 105.185 13.3388 104.521 14.2326C104.138 14.7177 103.908 15.3306 103.78 15.969H111.007C110.879 15.3306 110.649 14.7177 110.266 14.2326C109.602 13.3388 108.556 12.8792 107.406 12.9047Z" fill="#979797"/>
<path d="M123.625 10.2235C124.34 10.1724 125.055 10.3001 125.77 10.5555V13.2367C125.106 12.9813 124.263 12.8536 123.369 12.9047C122.322 12.9558 121.505 13.3133 120.969 13.8751C120.101 14.7433 119.896 15.9179 119.896 17.3224V24.3702H117.011V10.581H119.565V12.5472C119.896 11.9854 120.331 11.5003 120.918 11.0917C121.709 10.5044 122.68 10.249 123.625 10.2235Z" fill="#979797"/>
<path d="M138.592 14.207L135.783 14.8965C135.578 14.2581 135.042 13.6197 134.429 13.3133C133.944 13.0579 133.357 12.9047 132.718 12.9047C132.055 12.9047 131.442 13.0324 130.982 13.2622C130.497 13.5431 130.293 13.9006 130.293 14.2326C130.293 14.4879 130.369 14.6922 130.497 14.8454C130.778 15.1518 131.288 15.3817 132.08 15.6115C132.77 15.8158 133.612 16.02 134.455 16.2499C135.553 16.5818 136.293 16.7861 137.162 17.5011C138.234 18.3693 138.796 19.4673 138.694 20.7952C138.592 22.0464 137.877 23.1445 136.804 23.8339C135.706 24.5489 134.353 24.7532 132.974 24.7532C131.11 24.7532 129.475 24.2425 128.25 22.9402C127.56 22.1486 126.896 20.7186 126.794 19.9014L129.552 19.2375C129.578 19.7993 129.859 20.6164 130.318 21.0761C131.008 21.8421 131.978 22.0209 132.948 22.0209C133.714 22.0209 134.736 21.8677 135.221 21.4846C135.578 21.2038 135.706 20.9229 135.783 20.5398C135.783 20.1823 135.681 19.8759 135.4 19.595C135.017 19.2375 134.429 19.0332 133.714 18.829C132.999 18.6247 132.259 18.4459 131.416 18.2161C130.267 17.9097 129.45 17.6033 128.709 16.9904C127.79 16.3009 127.356 15.2284 127.356 14.2836C127.356 12.6749 128.403 11.3471 129.782 10.7342C130.829 10.2746 131.825 10.1724 132.77 10.198C133.714 10.198 134.761 10.4022 135.681 10.8874C137.034 11.5513 138.106 12.8026 138.592 14.207Z" fill="#979797"/>
<path d="M143.731 14.3858L141.101 13.1345C141.203 13.0069 141.305 12.8026 141.432 12.6494C142.658 10.964 144.522 10.2235 146.693 10.2235C149.221 10.2235 151.289 11.0917 152.362 13.0835C152.821 13.9517 153 14.8965 153 15.7136V24.3702H150.472V21.8421C150.115 22.7104 149.221 23.502 148.455 23.9105C147.433 24.4978 146.233 24.7532 145.11 24.7277C143.731 24.7021 142.326 24.0127 141.586 23.0423C140.947 22.123 140.615 21.408 140.615 20.31C140.615 18.8545 141.458 17.4756 142.76 16.7095C144.267 15.8924 145.544 15.8158 147.587 15.5093L150.063 15.1518C149.936 14.4879 149.553 13.9006 148.991 13.5176C148.353 13.0579 147.51 12.8792 146.642 12.9047C145.595 12.9047 144.65 13.2111 144.037 13.9772C143.935 14.1049 143.807 14.2581 143.731 14.3858ZM150.14 17.5011C149.629 17.5777 148.761 17.7309 147.255 18.0118C145.442 18.3182 143.526 18.6502 143.475 20.1313C143.45 21.1527 144.344 22.072 145.62 22.0975C147.229 22.123 149.221 21.2804 149.808 19.5439C150.14 18.7523 150.14 18.0629 150.14 17.5011Z" fill="#979797"/>
<path d="M4.531 25.0589C4.17255 25.3769 4.13803 25.9272 4.47564 26.2671C5.8055 27.6064 7.37192 28.6917 9.09815 29.4667C11.0886 30.3604 13.2461 30.8211 15.4279 30.8185C17.6097 30.8159 19.7661 30.35 21.7544 29.4515C23.7427 28.5531 25.5175 27.2427 26.9614 25.607L25.6606 24.4587C24.3793 25.9102 22.8043 27.0731 21.0399 27.8703C19.2756 28.6676 17.362 29.0811 15.4258 29.0834C13.4897 29.0857 11.5751 28.6768 9.80884 27.8838C8.30678 27.2094 6.94108 26.2703 5.77594 25.1136C5.43591 24.776 4.88946 24.741 4.531 25.0589Z" fill="#979797"/>
<path d="M26.9118 25.6099L22.716 21.4141L21.2691 22.5715L25.6097 26.9121C26.4199 26.2176 26.8154 25.7546 26.9118 25.6099Z" fill="#979797"/>
<path d="M22.934 9.13057C21.5926 7.49128 19.9059 6.32487 17.8532 5.80236C15.8005 5.27986 13.6344 5.42876 11.6725 6.22722C9.71054 7.02568 8.05605 8.43169 6.95156 10.2391C5.84708 12.0465 5.35072 14.1603 5.53525 16.2704L7.36476 16.1104C7.21442 14.3913 7.61881 12.6692 8.51863 11.1967C9.41845 9.72422 10.7664 8.57874 12.3647 7.92823C13.9631 7.27773 15.7278 7.15642 17.4002 7.5821C19.0725 8.00779 20.5645 8.95806 21.6573 10.2936L22.934 9.13057Z" fill="#979797"/>
<path d="M8.45406 21.1082C8.06187 21.4297 8.00174 22.0118 8.35816 22.3725C9.61843 23.6481 11.2058 24.5623 12.9542 25.0091C15.0002 25.5321 17.1598 25.3878 19.118 24.5974C21.0763 23.807 22.7309 22.4117 23.8406 20.615C24.9503 18.8183 25.4571 16.7142 25.2871 14.6093L23.4566 14.7571C23.5951 16.4719 23.1822 18.1862 22.2781 19.65C21.374 21.1137 20.026 22.2504 18.4306 22.8944C16.8352 23.5383 15.0759 23.6559 13.409 23.2299C12.0399 22.8799 10.792 22.1783 9.78543 21.2016C9.42149 20.8484 8.84625 20.7867 8.45406 21.1082Z" fill="#979797"/>
<path d="M25.3193 14.6112V15.8081C25.3193 16.106 25.0778 16.3474 24.78 16.3474H20.2553C19.7759 16.3474 19.3872 15.9587 19.3872 15.4793C19.3872 14.9999 19.7759 14.6112 20.2553 14.6112H25.3193Z" fill="#979797"/>
<path d="M5.49757 16.3474V15.1505C5.49757 14.8526 5.73901 14.6112 6.03684 14.6112H10.5615C11.041 14.6112 11.4296 14.9999 11.4296 15.4793C11.4296 15.9587 11.041 16.3474 10.5615 16.3474H5.49757Z" fill="#979797"/>
<path d="M27.0197 5.27859C24.905 2.85485 22.0848 1.15365 18.9545 0.413497C15.8243 -0.32666 12.5409 -0.0686643 9.56462 1.15131C6.58837 2.37129 4.06853 4.49209 2.35835 7.21636C0.802264 9.69519 -0.0124885 12.5606 0.00014471 15.4755C0.00222132 15.9546 0.416029 16.3189 0.894293 16.2899C1.37256 16.2609 1.73384 15.8494 1.73519 15.3702C1.74237 12.8173 2.46445 10.3109 3.82792 8.13889C5.34552 5.72139 7.58162 3.83941 10.2227 2.75681C12.8638 1.67421 15.7775 1.44526 18.5553 2.10207C21.3331 2.75888 23.8356 4.26852 25.7122 6.41933L27.0197 5.27859Z" fill="#979797"/>
<path d="M27.0559 5.28097L21.7026 10.3449C21.4615 10.0314 20.8056 9.28872 20.1111 8.82573L21.7026 7.81295L25.6091 3.90648C25.7538 4.00293 26.2457 4.41287 27.0559 5.28097Z" fill="#979797"/>
<rect x="16.9277" y="13.6016" width="1.73621" height="3.6171" rx="0.868104" fill="#979797"/>
<rect x="14.6123" y="11.8633" width="1.73621" height="7.08952" rx="0.868104" fill="#979797"/>
<rect x="12.1533" y="13.6016" width="1.73621" height="3.6171" rx="0.868104" fill="#979797"/>
</svg>
