<svg width="133" height="42" viewBox="0 0 133 42" fill="none" xmlns="http://www.w3.org/2000/svg">
<path d="M48.8361 34.5464C47.488 34.5464 46.2207 34.2806 45.034 33.749C43.8474 33.2079 42.8031 32.4626 41.9013 31.5133C41.0089 30.564 40.3064 29.4675 39.7938 28.2239C39.2906 26.9708 39.0391 25.6323 39.0391 24.2083C39.0391 22.7748 39.2906 21.4363 39.7938 20.1926C40.3064 18.9395 41.0089 17.8431 41.9013 16.9032C42.8031 15.9539 43.8474 15.2134 45.034 14.6818C46.2207 14.1407 47.488 13.8702 48.8361 13.8702C50.4499 13.8702 51.9356 14.2451 53.2931 14.9951C54.6507 15.7356 55.7756 16.7276 56.668 17.9712L53.5637 19.6373C53.0036 18.9443 52.3058 18.3889 51.4704 17.9712C50.6445 17.5535 49.7664 17.3447 48.8361 17.3447C47.9627 17.3447 47.1415 17.525 46.3726 17.8858C45.6036 18.237 44.9296 18.7307 44.3505 19.3667C43.7714 19.9933 43.3205 20.7243 42.9977 21.5597C42.675 22.3856 42.5136 23.2685 42.5136 24.2083C42.5136 25.1576 42.675 26.0452 42.9977 26.8711C43.33 27.697 43.7857 28.428 44.3648 29.0641C44.9439 29.6906 45.6131 30.1843 46.3726 30.545C47.1415 30.8963 47.9627 31.0719 48.8361 31.0719C49.7854 31.0719 50.6683 30.863 51.4847 30.4453C52.3106 30.0181 53.0036 29.458 53.5637 28.765L56.668 30.4453C55.7756 31.6795 54.6507 32.6715 53.2931 33.4215C51.9356 34.1714 50.4499 34.5464 48.8361 34.5464Z" fill="#979797"/>
<path d="M64.8699 34.5464C63.5598 34.5464 62.3637 34.2094 61.2815 33.5354C60.2087 32.8614 59.3496 31.9595 58.7041 30.8298C58.068 29.6906 57.75 28.4328 57.75 27.0562C57.75 26.012 57.9351 25.0389 58.3053 24.1371C58.6756 23.2257 59.1835 22.4283 59.829 21.7448C60.484 21.0518 61.2435 20.5107 62.1074 20.1214C62.9713 19.7322 63.8921 19.5376 64.8699 19.5376C66.18 19.5376 67.3714 19.8746 68.4441 20.5486C69.5263 21.2227 70.3855 22.1293 71.0215 23.2685C71.6671 24.4076 71.9898 25.6702 71.9898 27.0562C71.9898 28.091 71.8047 29.0593 71.4345 29.9612C71.0642 30.863 70.5516 31.6605 69.8966 32.3535C69.251 33.037 68.4963 33.5733 67.6324 33.9626C66.778 34.3518 65.8572 34.5464 64.8699 34.5464ZM64.8699 31.0719C65.5629 31.0719 66.1847 30.8868 66.7353 30.5165C67.2859 30.1463 67.7179 29.6574 68.0312 29.0498C68.3539 28.4423 68.5153 27.7777 68.5153 27.0562C68.5153 26.3158 68.3492 25.6418 68.0169 25.0342C67.6941 24.4171 67.2527 23.9282 66.6926 23.5675C66.142 23.1973 65.5344 23.0121 64.8699 23.0121C64.1864 23.0121 63.5693 23.1973 63.0187 23.5675C62.4681 23.9377 62.0314 24.4314 61.7087 25.0484C61.3859 25.6655 61.2245 26.3348 61.2245 27.0562C61.2245 27.8062 61.3906 28.485 61.7229 29.0925C62.0552 29.7001 62.4966 30.1843 63.0472 30.545C63.6073 30.8963 64.2149 31.0719 64.8699 31.0719Z" fill="#979797"/>
<path d="M77.6815 41.2961H74.207V19.9363H77.6815V21.7448C78.1467 21.0992 78.7163 20.5771 79.3903 20.1784C80.0738 19.7702 80.8713 19.5661 81.7826 19.5661C82.8269 19.5661 83.7999 19.7607 84.7018 20.1499C85.6036 20.5391 86.3963 21.0803 87.0798 21.7733C87.7728 22.4568 88.3092 23.2495 88.6889 24.1513C89.0782 25.0532 89.2728 26.0215 89.2728 27.0562C89.2728 28.091 89.0782 29.0641 88.6889 29.9754C88.3092 30.8868 87.7728 31.6889 87.0798 32.3819C86.3963 33.0655 85.6036 33.6018 84.7018 33.9911C83.7999 34.3803 82.8269 34.5749 81.7826 34.5749C80.8713 34.5749 80.0738 34.3755 79.3903 33.9768C78.7163 33.5686 78.1467 33.0417 77.6815 32.3962V41.2961ZM81.7399 22.9125C81.0184 22.9125 80.3729 23.1023 79.8033 23.482C79.2337 23.8523 78.7875 24.3507 78.4647 24.9772C78.142 25.6038 77.9806 26.2968 77.9806 27.0562C77.9806 27.8157 78.142 28.5135 78.4647 29.1495C78.7875 29.7761 79.2337 30.2792 79.8033 30.6589C80.3729 31.0292 81.0184 31.2143 81.7399 31.2143C82.4709 31.2143 83.1401 31.0292 83.7477 30.6589C84.3553 30.2887 84.8394 29.7903 85.2002 29.1637C85.5609 28.5277 85.7413 27.8252 85.7413 27.0562C85.7413 26.2968 85.5609 25.6038 85.2002 24.9772C84.8394 24.3507 84.3553 23.8523 83.7477 23.482C83.1496 23.1023 82.4804 22.9125 81.7399 22.9125Z" fill="#979797"/>
<path d="M100.385 19.9363H104.073L96.2837 41.2961H92.5955L95.173 34.1762L90.0466 19.9363H93.8486L96.9102 29.4201L100.385 19.9363Z" fill="#979797"/>
<path d="M116.233 19.9363H119.707V34.1762H116.233L116.076 32.4104C115.687 33.0465 115.169 33.5639 114.524 33.9626C113.888 34.3518 113.133 34.5464 112.26 34.5464C111.206 34.5464 110.219 34.347 109.298 33.9483C108.377 33.5496 107.565 32.999 106.863 32.2965C106.17 31.594 105.624 30.7823 105.225 29.8615C104.836 28.9407 104.641 27.9534 104.641 26.8996C104.641 25.8838 104.826 24.9298 105.197 24.0374C105.576 23.145 106.103 22.3618 106.777 21.6878C107.451 21.0138 108.23 20.4869 109.113 20.1072C109.996 19.7275 110.945 19.5376 111.961 19.5376C112.9 19.5376 113.741 19.7465 114.481 20.1642C115.231 20.5819 115.867 21.1135 116.389 21.759L116.233 19.9363ZM112.174 31.2C112.915 31.2 113.57 31.0149 114.139 30.6447C114.709 30.2745 115.155 29.7761 115.478 29.1495C115.801 28.5135 115.962 27.8157 115.962 27.0562C115.962 26.2873 115.801 25.5895 115.478 24.963C115.155 24.3269 114.704 23.8238 114.125 23.4536C113.555 23.0833 112.905 22.8982 112.174 22.8982C111.443 22.8982 110.774 23.0881 110.166 23.4678C109.568 23.838 109.089 24.3364 108.728 24.963C108.377 25.5895 108.201 26.2873 108.201 27.0562C108.201 27.8252 108.382 28.523 108.742 29.1495C109.103 29.7761 109.583 30.2745 110.181 30.6447C110.788 31.0149 111.453 31.2 112.174 31.2Z" fill="#979797"/>
<path d="M122.628 34.1762V12.8164H126.103V34.1762H122.628Z" fill="#979797"/>
<path d="M129.525 34.1762V12.8164H133V34.1762H129.525Z" fill="#979797"/>
<path d="M17.5071 36.6657L28.5894 33.3314V25.8519H29.6848V34.1457L16.7615 38.034L16.6053 37.9885L3.50537 34.1487V25.8519H4.60074V33.3282L15.7954 36.6092L16.6498 20.375L17.5071 36.6657Z" fill="#979797"/>
<path d="M28.6988 17.3109L33.2993 25.1975L20.3739 24.1022L16.8687 15.7773L28.6988 17.3109Z" fill="#979797"/>
<path d="M4.60056 17.3109L0 25.1975L12.9254 24.1022L16.4306 15.7773L4.60056 17.3109Z" fill="#979797"/>
<path d="M23.2635 0.4375H21.4276C20.6302 0.4375 20.1548 0.912892 20.1548 1.71032V3.54398C20.1548 4.3436 20.6302 4.81899 21.4276 4.81899H23.2613C24.0587 4.81899 24.5341 4.3436 24.5341 3.54617V1.71032C24.5363 0.912892 24.0609 0.4375 23.2635 0.4375ZM21.3882 3.97555C21.3882 4.06537 21.3137 4.13986 21.2239 4.13986C21.134 4.13986 21.0596 4.06537 21.0596 3.97555V3.52207C21.0596 3.43225 21.134 3.35776 21.2239 3.35776C21.3137 3.35776 21.3882 3.43225 21.3882 3.52207V3.97555ZM22.5098 3.97555C22.5098 4.06537 22.4354 4.13986 22.3455 4.13986C22.2557 4.13986 22.1812 4.06537 22.1812 3.97555V3.06639C22.1812 2.97657 22.2557 2.90209 22.3455 2.90209C22.4354 2.90209 22.5098 2.97657 22.5098 3.06639V3.97555ZM23.6315 3.97555C23.6315 4.06537 23.557 4.13986 23.4672 4.13986C23.3774 4.13986 23.3029 4.06537 23.3029 3.97555V2.61291C23.3029 2.52309 23.3774 2.4486 23.4672 2.4486C23.557 2.4486 23.6315 2.52309 23.6315 2.61291V3.97555ZM23.6315 1.92063C23.6315 2.01045 23.557 2.08494 23.4672 2.08494C23.3774 2.08494 23.3029 2.01045 23.3029 1.92063V1.70813C22.7442 2.28211 22.0454 2.68739 21.2633 2.88237C21.2502 2.88675 21.237 2.88675 21.2239 2.88675C21.1494 2.88675 21.0837 2.83636 21.0639 2.76188C21.042 2.67425 21.0946 2.58443 21.1844 2.56252C21.9227 2.3785 22.5799 1.99074 23.1013 1.44305H22.8275C22.7377 1.44305 22.6632 1.36857 22.6632 1.27875C22.6632 1.18893 22.7377 1.11444 22.8275 1.11444H23.4694C23.4781 1.11444 23.4847 1.11882 23.4935 1.11882C23.5044 1.12101 23.5154 1.12101 23.5263 1.12539C23.5373 1.12978 23.5461 1.13635 23.557 1.14292C23.5636 1.1473 23.5702 1.14949 23.5767 1.15387C23.5789 1.15606 23.5789 1.15825 23.5811 1.15825C23.5899 1.16702 23.5964 1.17578 23.603 1.18454C23.6096 1.19331 23.6162 1.19988 23.6184 1.20864C23.6227 1.21741 23.6227 1.22617 23.6249 1.23712C23.6271 1.24808 23.6315 1.25903 23.6315 1.27217C23.6315 1.27436 23.6337 1.27656 23.6337 1.27875V1.92063H23.6315Z" fill="#979797"/>
<path opacity="0.4" d="M21.7104 6.22277L21.3526 7.74899C21.0459 9.06709 20.4398 9.60017 19.3006 9.49063C19.118 9.47603 18.9208 9.44317 18.7091 9.39205L18.0957 9.246C16.5731 8.88453 16.1021 8.13237 16.4599 6.60615L16.8177 5.07628C16.8907 4.76593 16.9784 4.49574 17.0879 4.27301C17.5151 3.38941 18.2417 3.15208 19.4612 3.44053L20.071 3.58293C21.6008 3.94075 22.0682 4.69655 21.7104 6.22277Z" fill="#979797"/>
<path d="M19.3005 9.49106C19.0741 9.64441 18.7893 9.77221 18.4425 9.88539L17.8656 10.0753C16.416 10.5426 15.6529 10.1519 15.1819 8.70239L14.7145 7.26015C14.2472 5.81061 14.6342 5.04385 16.0837 4.57649L16.6606 4.38663C16.8103 4.33916 16.9527 4.299 17.0878 4.27344C16.9783 4.49616 16.8907 4.76636 16.8176 5.07671L16.4598 6.60658C16.102 8.1328 16.573 8.88495 18.0956 9.24643L18.709 9.39248C18.9208 9.44359 19.1179 9.47646 19.3005 9.49106Z" fill="#979797"/>
<path d="M20.1878 6.24802C20.1659 6.24802 20.1439 6.24437 20.1184 6.24072L18.3475 5.79161C18.2015 5.7551 18.1139 5.6054 18.1504 5.45935C18.1869 5.3133 18.3366 5.22567 18.4826 5.26218L20.2535 5.71129C20.3995 5.7478 20.4872 5.8975 20.4506 6.04355C20.4214 6.16404 20.3082 6.24802 20.1878 6.24802Z" fill="#979797"/>
<path d="M19.1181 7.48317C19.0962 7.48317 19.0743 7.47952 19.0487 7.47587L17.9862 7.20568C17.8402 7.16916 17.7525 7.01946 17.789 6.87341C17.8256 6.72736 17.9753 6.63973 18.1213 6.67625L19.1838 6.94644C19.3299 6.98295 19.4175 7.13265 19.381 7.2787C19.3518 7.40284 19.2422 7.48317 19.1181 7.48317Z" fill="#979797"/>
<path d="M23.3126 9.96875H21.8174V11.1627H23.3126V9.96875Z" fill="#979797"/>
<path d="M23.7231 9.96875V11.1627H25.2676C25.128 10.4096 24.5721 9.97149 23.7231 9.96875Z" fill="#979797"/>
<path d="M19.8267 11.5742V13.8553C19.8267 14.8521 20.4209 15.4464 21.4177 15.4464H23.7125C24.7093 15.4464 25.3035 14.8521 25.3035 13.8553V11.5742H19.8267ZM23.2333 13.8526L22.6637 14.1812C22.5432 14.2497 22.4254 14.2853 22.3159 14.2853C22.2337 14.2853 22.1598 14.2661 22.0913 14.2278C21.9325 14.1374 21.8449 13.9512 21.8449 13.7102V13.053C21.8449 12.812 21.9325 12.6258 22.0913 12.5354C22.2502 12.4423 22.4528 12.4587 22.6637 12.582L23.2333 12.9106C23.4441 13.0311 23.5591 13.2008 23.5591 13.3843C23.5591 13.5678 23.4414 13.7294 23.2333 13.8526Z" fill="#979797"/>
<path d="M21.4068 9.96875C20.5579 9.97149 20.002 10.4096 19.8623 11.1627H21.4068V9.96875Z" fill="#979797"/>
<path d="M11.7643 14.3418L11.7597 14.3481C11.662 14.1997 11.588 14.0255 11.5381 13.8281C11.5875 14.0228 11.6665 14.1934 11.7643 14.3418Z" fill="#979797"/>
<path d="M13.1409 11.7395C13.4966 11.6846 13.7405 11.3517 13.6855 10.996C13.6306 10.6402 13.2977 10.3964 12.942 10.4513C12.5862 10.5062 12.3424 10.8392 12.3973 11.1949C12.4523 11.5506 12.7852 11.7945 13.1409 11.7395Z" fill="#979797"/>
<path d="M14.7368 9.16866L12.4689 9.51889C11.4838 9.67103 10.9872 10.349 11.1393 11.3341L11.4895 13.602C11.5351 13.897 11.6262 14.1462 11.7598 14.3472C12.072 14.8255 12.6146 15.0382 13.3048 14.9316L15.5727 14.5814C16.5578 14.4292 17.0544 13.7513 16.9022 12.7661L16.8065 12.1464L16.552 10.4982C16.3999 9.51311 15.7219 9.01653 14.7368 9.16866ZM16.3069 11.8356C16.0678 11.6869 15.7268 11.7396 15.5437 11.9535L14.5671 13.0935C14.384 13.3074 14.043 13.3601 13.8039 13.2114L13.7002 13.1498C13.4821 13.0117 13.1738 13.0427 12.9798 13.2223L12.0726 14.0579C11.9896 13.9155 11.9273 13.745 11.8955 13.5393L11.5453 11.2714C11.4274 10.5082 11.7684 10.0427 12.5316 9.92485L14.7995 9.57461C15.5627 9.45675 16.0282 9.79772 16.1461 10.5609L16.3467 11.86L16.3069 11.8356Z" fill="#979797"/>
<path d="M7.32972 9.67427L5.60815 10.3119C4.86035 10.5888 4.57965 11.1997 4.8566 11.9475L5.49343 13.667C5.77113 14.4169 6.38204 14.6976 7.12983 14.4206L8.84935 13.7838C9.59714 13.5068 9.87784 12.8959 9.60089 12.1481L8.96331 10.4266C8.68842 9.67802 8.07751 9.39732 7.32972 9.67427ZM6.31404 12.8865C6.34524 12.9708 6.30126 13.0665 6.21703 13.0977C6.1328 13.1289 6.03708 13.0849 6.00589 13.0007L5.68025 12.1214C5.64905 12.0371 5.69303 11.9414 5.77726 11.9102C5.86149 11.879 5.95721 11.923 5.9884 12.0072L6.31404 12.8865ZM7.03916 12.952C7.07035 13.0363 7.02637 13.132 6.94214 13.1632C6.85791 13.1944 6.7622 13.1504 6.731 13.0662L6.18776 11.5993C6.15657 11.5151 6.20055 11.4194 6.28478 11.3882C6.36901 11.357 6.46472 11.401 6.49592 11.4852L7.03916 12.952ZM7.76427 13.0176C7.79547 13.1018 7.75149 13.1975 7.66726 13.2287C7.58303 13.2599 7.48731 13.2159 7.45612 13.1317L6.69527 11.0773C6.66408 10.9931 6.70806 10.8974 6.79229 10.8662C6.87652 10.835 6.97224 10.879 7.00343 10.9632L7.76427 13.0176ZM8.27179 12.4955C8.30298 12.5798 8.259 12.6755 8.17477 12.7067C8.09054 12.7379 7.99483 12.6939 7.96363 12.6097L7.42039 11.1428C7.38919 11.0586 7.43318 10.9629 7.5174 10.9317C7.60163 10.9005 7.69735 10.9445 7.72855 11.0287L8.27179 12.4955ZM8.7793 11.9735C8.8105 12.0577 8.76652 12.1535 8.68229 12.1847C8.59806 12.2158 8.50234 12.1719 8.47114 12.0876L8.1455 11.2084C8.11431 11.1241 8.15829 11.0284 8.24252 10.9972C8.32675 10.966 8.42247 11.01 8.45366 11.0942L8.7793 11.9735Z" fill="#979797"/>
<path d="M28.7638 8.4138L28.7729 8.36499C28.7829 8.2852 28.7773 8.20756 28.7562 8.13206C28.7307 8.02803 28.6779 7.93227 28.6026 7.85267L27.0413 6.20091C26.9661 6.1213 26.8747 6.06449 26.771 6.03187C26.6942 6.00646 26.6118 5.9964 26.5277 6.00307C26.3594 6.019 26.2061 6.09604 26.098 6.22085L25.5248 6.85559C25.3541 7.04967 25.1445 7.29043 25.5421 7.711L27.0119 9.26591C27.4094 9.68648 27.6603 9.48949 27.8663 9.32999L28.5296 8.79593C28.6523 8.70253 28.7362 8.568 28.7638 8.4138ZM27.1949 8.22114L26.5942 7.58564C26.5453 7.5339 26.5489 7.45264 26.5993 7.40498C26.6497 7.35733 26.7311 7.35833 26.78 7.41007L27.3807 8.04557C27.4296 8.09731 27.426 8.17857 27.3756 8.22622C27.3239 8.27513 27.2439 8.27288 27.1949 8.22114Z" fill="#979797"/>
<path opacity="0.4" d="M26.6144 6.00349C26.6686 6.00759 26.72 6.01421 26.7712 6.03114C26.8736 6.06244 26.9663 6.12058 27.0415 6.20018L28.6041 7.85327C28.6794 7.93287 28.7309 8.0273 28.7577 8.13266C28.7717 8.18471 28.7767 8.2378 28.7751 8.292L28.8455 8.22553L28.9742 8.10389C29.4478 7.65618 29.4557 7.37487 29.008 6.90123L28.7095 6.58548C28.6544 6.5271 28.6544 6.52452 28.6669 6.44739L28.73 6.08627C28.7567 5.91785 28.7613 5.80046 28.582 5.61074L28.434 5.45419C27.9863 4.98055 27.705 4.97263 27.2314 5.42034L26.6821 5.93953L26.6144 6.00349Z" fill="#979797"/>
<path d="M9.87802 4.49219H8.59278C8.54057 4.49219 8.49036 4.4942 8.44217 4.50022C7.90196 4.54641 7.63086 4.86571 7.63086 5.45411V6.25738C7.63086 7.06065 7.95217 7.2193 8.59278 7.2193H8.67311C8.71729 7.2193 8.77552 7.24942 8.80163 7.28356L9.04261 7.60487C9.14905 7.74745 9.32175 7.74745 9.42818 7.60487L9.66916 7.28356C9.69929 7.2434 9.74748 7.2193 9.79769 7.2193H9.87802C10.4664 7.2193 10.7857 6.9502 10.8319 6.40799C10.8379 6.3598 10.8399 6.30959 10.8399 6.25738V5.45411C10.8399 4.8135 10.5186 4.49219 9.87802 4.49219ZM8.53454 6.09873C8.42208 6.09873 8.33372 6.00837 8.33372 5.89792C8.33372 5.78747 8.42409 5.6971 8.53454 5.6971C8.64499 5.6971 8.73536 5.78747 8.73536 5.89792C8.73536 6.00837 8.64499 6.09873 8.53454 6.09873ZM9.2354 6.09873C9.12294 6.09873 9.03458 6.00837 9.03458 5.89792C9.03458 5.78747 9.12495 5.6971 9.2354 5.6971C9.34585 5.6971 9.43622 5.78747 9.43622 5.89792C9.43622 6.00837 9.34786 6.09873 9.2354 6.09873ZM9.93826 6.09873C9.8258 6.09873 9.73744 6.00837 9.73744 5.89792C9.73744 5.78747 9.82781 5.6971 9.93826 5.6971C10.0487 5.6971 10.1391 5.78747 10.1391 5.89792C10.1391 6.00837 10.0487 6.09873 9.93826 6.09873Z" fill="#979797"/>
<path d="M11.6429 4.65333V5.4566C11.6429 5.85824 11.5184 6.13135 11.2694 6.28196C11.2091 6.31811 11.1388 6.26991 11.1388 6.19963L11.1408 5.4566C11.1408 4.65333 10.681 4.19345 9.8777 4.19345L8.65471 4.19546C8.58443 4.19546 8.53623 4.12517 8.57238 4.06493C8.72299 3.81591 8.9961 3.69141 9.39573 3.69141H10.681C11.3216 3.69141 11.6429 4.01272 11.6429 4.65333Z" fill="#979797"/>
</svg>
