<svg width="75" height="26" viewBox="0 0 75 26" fill="none" xmlns="http://www.w3.org/2000/svg">
<path d="M63.9171 6.97898C65.7161 6.62114 67.5808 6.80481 69.2753 7.50674C70.9698 8.20866 72.4182 9.39728 73.4372 10.9223C74.4562 12.4474 75.0002 14.2405 75.0002 16.0747H73.7882C73.7882 14.4802 73.3154 12.9215 72.4295 11.5957C71.5437 10.2699 70.2846 9.23657 68.8115 8.62637C67.3384 8.01618 65.7174 7.85655 64.1535 8.16762C62.5897 8.4787 61.1533 9.24656 60.0258 10.374C58.8984 11.5015 58.1305 12.938 57.8194 14.5019C57.5084 16.0657 57.668 17.6868 58.2782 19.16C58.8884 20.6331 59.9217 21.8921 61.2474 22.778C62.5732 23.6639 64.1319 24.1367 65.7264 24.1367V25.3487C63.8922 25.3487 62.0992 24.8047 60.5741 23.7857C59.0491 22.7667 57.8605 21.3183 57.1586 19.6238C56.4567 17.9292 56.273 16.0644 56.6308 14.2655C56.9887 12.4665 57.8719 10.814 59.1688 9.51703C60.4658 8.22004 62.1182 7.33682 63.9171 6.97898Z" fill="#979797"/>
<path d="M65.3715 11.3498C66.3372 11.2773 67.3018 11.5023 68.1357 11.9948C68.9695 12.4872 69.6324 13.2234 70.0352 14.1041C70.438 14.9847 70.5613 15.9676 70.3885 16.9204C70.2156 17.8732 69.7549 18.7502 69.0685 19.4333C68.382 20.1164 67.5028 20.5729 66.5491 20.741C65.5955 20.9092 64.6132 20.7809 63.7346 20.3739C62.856 19.9668 62.1231 19.3003 61.6348 18.464C61.1465 17.6278 60.9261 16.662 61.0033 15.6967L61.9841 15.7751C61.9229 16.54 62.0975 17.3052 62.4844 17.9678C62.8713 18.6304 63.452 19.1586 64.1482 19.4812C64.8443 19.8037 65.6226 19.9053 66.3782 19.772C67.1339 19.6388 67.8306 19.2772 68.3744 18.7359C68.9183 18.1947 69.2833 17.4997 69.4203 16.7448C69.5572 15.9898 69.4596 15.211 69.1405 14.5132C68.8213 13.8154 68.2961 13.2322 67.6354 12.842C66.9747 12.4518 66.2103 12.2735 65.4451 12.331L65.3715 11.3498Z" fill="#979797"/>
<path fill-rule="evenodd" clip-rule="evenodd" d="M65.8841 9.96157C69.1884 10.0453 71.8413 12.7502 71.8413 16.0747L71.8394 16.2325C71.7557 19.5368 69.0508 22.1897 65.7264 22.1898L65.5685 22.1879C62.3166 22.1054 59.6957 19.4844 59.6134 16.2325L59.6113 16.0747C59.6113 12.6974 62.3492 9.95954 65.7264 9.95952L65.8841 9.96157ZM65.7264 10.9298C62.885 10.9298 60.5815 13.2333 60.5815 16.0747C60.5816 18.9161 62.885 21.2195 65.7264 21.2195C68.5677 21.2195 70.871 18.9161 70.8711 16.0747C70.871 13.2333 68.5677 10.9298 65.7264 10.9298Z" fill="#979797"/>
<path fill-rule="evenodd" clip-rule="evenodd" d="M65.8252 8.42124C70.0068 8.47419 73.3801 11.8805 73.3802 16.0747L73.3797 16.1736C73.3267 20.3552 69.9205 23.7286 65.7264 23.7287L65.6274 23.7282C61.4788 23.6756 58.1256 20.3223 58.0731 16.1736L58.0724 16.0747C58.0724 11.8475 61.4993 8.42063 65.7264 8.42061L65.8252 8.42124ZM65.7264 9.39085C62.0351 9.39087 59.0427 12.3834 59.0427 16.0747C59.0427 19.7661 62.0351 22.7584 65.7264 22.7584C69.4176 22.7584 72.4099 19.7661 72.4099 16.0747C72.4099 12.3834 69.4176 9.39088 65.7264 9.39085Z" fill="#979797"/>
<path d="M43.1687 7.34388C44.4309 6.8932 45.7783 6.72038 47.1182 6.84098C48.6714 6.98077 50.1643 7.50998 51.4587 8.37966C52.7531 9.24934 53.8074 10.4315 54.5239 11.8166C55.2404 13.2017 55.596 14.7452 55.558 16.3042C55.5199 17.8632 55.0892 19.3874 54.306 20.7359C53.5227 22.0844 52.4119 23.2136 51.0766 24.019C49.7412 24.8244 48.2243 25.2801 46.6661 25.3439C45.4736 25.3927 44.2864 25.2103 43.1687 24.8112V23.4216C44.2544 23.8826 45.4307 24.0981 46.6131 24.0497C47.9537 23.9949 49.2588 23.6029 50.4077 22.91C51.5565 22.217 52.5121 21.2455 53.186 20.0854C53.86 18.9253 54.2304 17.6138 54.2632 16.2725C54.2959 14.9312 53.9899 13.6033 53.3735 12.4116C52.7571 11.22 51.8501 10.203 50.7365 9.45474C49.6228 8.70651 48.3384 8.25125 47.0021 8.13097C45.6938 8.01322 44.3771 8.22052 43.1687 8.73362V7.34388Z" fill="#979797"/>
<path d="M46.1382 8.42498C47.5085 8.39834 48.8607 8.7402 50.0538 9.41472C51.2469 10.0892 52.2369 11.0717 52.9206 12.2596C53.6042 13.4475 53.9564 14.7972 53.9403 16.1676C53.9242 17.5381 53.5404 18.8791 52.829 20.0506C52.1176 21.2221 51.1047 22.181 49.8961 22.8273C48.6875 23.4736 47.3275 23.7835 45.9582 23.7247C44.9917 23.6831 44.0457 23.4586 43.1687 23.0674V21.7118C44.0395 22.1937 45.012 22.4685 46.0104 22.5115C47.1625 22.561 48.3067 22.3002 49.3235 21.7565C50.3404 21.2127 51.1926 20.4059 51.7911 19.4203C52.3897 18.4347 52.7126 17.3064 52.7262 16.1533C52.7397 15.0003 52.4434 13.8647 51.8682 12.8653C51.293 11.8659 50.46 11.0392 49.4562 10.4717C48.4524 9.90418 47.3146 9.61663 46.1617 9.63904C45.112 9.65946 44.0847 9.9362 43.1687 10.4431V9.0875C44.1011 8.67156 45.1106 8.44496 46.1382 8.42498Z" fill="#979797"/>
<path d="M45.2632 10.0488C46.4408 9.8488 47.6512 9.99809 48.7448 10.4782C49.8385 10.9583 50.7677 11.7482 51.4176 12.7503C52.0674 13.7525 52.4096 14.9231 52.4018 16.1175C52.394 17.3119 52.0366 18.4779 51.3737 19.4715C50.7108 20.4651 49.7714 21.2428 48.6716 21.7086C47.5717 22.1744 46.3595 22.308 45.1847 22.0927C44.4697 21.9616 43.7877 21.7046 43.1687 21.3376V19.9627C43.8114 20.4786 44.5739 20.8286 45.3889 20.978C46.3461 21.1534 47.3336 21.0447 48.2297 20.6652C49.1257 20.2857 49.8911 19.6521 50.4312 18.8426C50.9712 18.0332 51.2623 17.0832 51.2687 16.1101C51.275 15.137 50.9963 14.1833 50.4668 13.3669C49.9374 12.5504 49.1804 11.9069 48.2893 11.5158C47.3983 11.1247 46.4122 11.003 45.4529 11.1659C44.6146 11.3083 43.8287 11.6624 43.1687 12.1921V10.8174C43.8107 10.4368 44.5201 10.175 45.2632 10.0488Z" fill="#979797"/>
<path d="M48.7429 12.0256C49.3338 12.3838 49.8393 12.8669 50.2238 13.441C50.6083 14.0151 50.8625 14.6664 50.9688 15.3492C51.075 16.032 51.0306 16.7298 50.8387 17.3936C50.6467 18.0575 50.312 18.6713 49.8578 19.1921C49.4036 19.7128 48.841 20.1279 48.2094 20.4083C47.5779 20.6886 46.8926 20.8275 46.2018 20.8151C45.5109 20.8026 44.8311 20.6393 44.21 20.3364C43.8328 20.1524 43.4829 19.9196 43.1687 19.6449V18.6057L43.4603 18.3693C43.7945 18.7815 44.2149 19.1157 44.6918 19.3484C45.1688 19.581 45.691 19.7065 46.2215 19.716C46.7521 19.7256 47.2784 19.6189 47.7634 19.4036C48.2484 19.1883 48.6805 18.8695 49.0293 18.4695C49.3782 18.0696 49.6353 17.5981 49.7827 17.0883C49.93 16.5785 49.9641 16.0426 49.8826 15.5183C49.801 14.9939 49.6057 14.4937 49.3105 14.0527C49.0152 13.6118 48.627 13.2408 48.1731 12.9657L48.7429 12.0256Z" fill="#979797"/>
<path d="M42.0348 0H43.1687V25.3516H42.0348V0Z" fill="#979797"/>
<path d="M40.5769 0H41.7108V25.3516H40.5769V0Z" fill="#979797"/>
<path d="M39.119 0H40.2529V25.3516H39.119V0Z" fill="#979797"/>
<path d="M37.6611 9.33402e-07H38.795V25.3516H37.6611V9.33402e-07Z" fill="#979797"/>
<path d="M25.445 6.97898C27.2439 6.62114 29.1086 6.80481 30.8032 7.50674C32.4977 8.20866 33.946 9.39728 34.965 10.9223C35.984 12.4474 36.528 14.2405 36.528 16.0747H35.316C35.316 14.4802 34.8432 12.9215 33.9573 11.5957C33.0715 10.2699 31.8125 9.23657 30.3394 8.62637C28.8663 8.01618 27.2452 7.85655 25.6814 8.16762C24.1175 8.4787 22.6811 9.24656 21.5537 10.374C20.4262 11.5015 19.6584 12.938 19.3473 14.5019C19.0362 16.0657 19.1958 17.6868 19.806 19.16C20.4162 20.6331 21.4495 21.8921 22.7753 22.778C24.101 23.6639 25.6597 24.1367 27.2542 24.1367V25.3487C25.42 25.3487 23.627 24.8047 22.1019 23.7857C20.5769 22.7667 19.3883 21.3183 18.6864 19.6238C17.9845 17.9292 17.8008 16.0644 18.1587 14.2655C18.5165 12.4665 19.3997 10.814 20.6967 9.51703C21.9936 8.22004 23.646 7.33682 25.445 6.97898Z" fill="#979797"/>
<path d="M26.8994 11.3498C27.865 11.2773 28.8297 11.5023 29.6635 11.9948C30.4973 12.4872 31.1603 13.2234 31.563 14.1041C31.9658 14.9847 32.0891 15.9676 31.9163 16.9204C31.7435 17.8732 31.2827 18.7502 30.5963 19.4333C29.9099 20.1164 29.0306 20.5729 28.0769 20.741C27.1233 20.9092 26.1411 20.7809 25.2624 20.3739C24.3838 19.9668 23.651 19.3003 23.1626 18.464C22.6743 17.6278 22.4539 16.662 22.5311 15.6967L23.512 15.7751C23.4507 16.54 23.6253 17.3052 24.0122 17.9678C24.3991 18.6304 24.9798 19.1586 25.676 19.4812C26.3722 19.8037 27.1505 19.9053 27.9061 19.772C28.6617 19.6388 29.3584 19.2772 29.9023 18.7359C30.4461 18.1947 30.8112 17.4997 30.9481 16.7448C31.0851 15.9898 30.9874 15.211 30.6683 14.5132C30.3492 13.8154 29.8239 13.2322 29.1632 12.842C28.5025 12.4518 27.7381 12.2735 26.973 12.331L26.8994 11.3498Z" fill="#979797"/>
<path fill-rule="evenodd" clip-rule="evenodd" d="M27.412 9.96157C30.7162 10.0453 33.3691 12.7502 33.3691 16.0747L33.3672 16.2325C33.2835 19.5368 30.5787 22.1897 27.2542 22.1898L27.0963 22.1879C23.8445 22.1054 21.2236 19.4844 21.1412 16.2325L21.1391 16.0747C21.1392 12.6974 23.877 9.95954 27.2542 9.95952L27.412 9.96157ZM27.2542 10.9298C24.4128 10.9298 22.1094 13.2333 22.1094 16.0747C22.1094 18.9161 24.4128 21.2195 27.2542 21.2195C30.0956 21.2195 32.3989 18.9161 32.3989 16.0747C32.3989 13.2333 30.0956 10.9298 27.2542 10.9298Z" fill="#979797"/>
<path fill-rule="evenodd" clip-rule="evenodd" d="M27.3531 8.42124C31.5346 8.47419 34.908 11.8805 34.908 16.0747L34.9075 16.1736C34.8546 20.3552 31.4483 23.7286 27.2542 23.7287L27.1552 23.7282C23.0066 23.6756 19.6534 20.3223 19.6009 16.1736L19.6003 16.0747C19.6003 11.8475 23.0271 8.42063 27.2542 8.42061L27.3531 8.42124ZM27.2542 9.39085C23.5629 9.39088 20.5705 12.3834 20.5705 16.0747C20.5705 19.7661 23.5629 22.7584 27.2542 22.7584C30.9455 22.7584 33.9377 19.7661 33.9378 16.0747C33.9377 12.3834 30.9455 9.39088 27.2542 9.39085Z" fill="#979797"/>
<path d="M11.9061 12.3923H10.2862L19.5195 25.3516H21.3013L11.9061 12.3923Z" fill="#979797"/>
<path d="M19.6815 0H18.0616L8.42334 12.3923L17.7376 25.3516H19.2765L9.71924 12.3923L19.6815 0Z" fill="#979797"/>
<path d="M16.3607 0L6.3985 12.3923L15.7938 25.3516H17.4946L7.6134 12.3923L17.5756 0H16.3607Z" fill="#979797"/>
<path d="M15.6318 0H14.0929L4.94061 11.4204V13.2023L13.6879 25.3516H15.4698L5.83154 12.3923V12.1493L15.6318 0Z" fill="#979797"/>
<path d="M4.37366 0H5.50757V25.3516H4.37366V0Z" fill="#979797"/>
<path d="M2.91577 0H4.04968V25.3516H2.91577V0Z" fill="#979797"/>
<path d="M1.45789 0H2.5918V25.3516H1.45789V0Z" fill="#979797"/>
<path d="M0 9.33401e-07H1.13391V25.3516H0V9.33401e-07Z" fill="#979797"/>
</svg>
