<svg width="25" height="15" viewBox="0 0 32 15" fill="none" xmlns="http://www.w3.org/2000/svg">
<path d="M1 6.36328C0.447715 6.36328 -1.19209e-07 6.811 -1.19209e-07 7.36328C-1.19209e-07 7.91557 0.447715 8.36328 1 8.36328V7.36328V6.36328ZM31.7071 8.07039C32.0976 7.67986 32.0976 7.0467 31.7071 6.65617L25.3431 0.292213C24.9526 -0.0983118 24.3195 -0.0983118 23.9289 0.292213C23.5384 0.682737 23.5384 1.3159 23.9289 1.70643L29.5858 7.36328L23.9289 13.0201C23.5384 13.4107 23.5384 14.0438 23.9289 14.4343C24.3195 14.8249 24.9526 14.8249 25.3431 14.4343L31.7071 8.07039ZM1 7.36328V8.36328H31V7.36328V6.36328H1V7.36328Z" fill="black"/>
</svg>
