<svg width="156" height="27" viewBox="0 0 156 27" fill="none" xmlns="http://www.w3.org/2000/svg">
<path d="M40.7385 21.6563C37.6531 21.6563 35.5374 20.323 34.9203 18.4717C34.8432 18.2293 34.7881 17.9648 34.7881 17.7004C34.7881 16.9841 35.2289 16.5213 35.901 16.5213C36.463 16.5213 36.8267 16.7748 37.0691 17.3698C37.5649 18.8574 39.0085 19.5516 40.8487 19.5516C42.8652 19.5516 44.3087 18.5158 44.3087 17.0943C44.3087 15.8602 43.4713 15.0888 41.3446 14.626L39.6035 14.2624C36.43 13.5902 34.9864 12.1136 34.9864 9.8216C34.9864 7.09984 37.3776 5.22656 40.7605 5.22656C43.5043 5.22656 45.6641 6.51582 46.2812 8.64254C46.3363 8.79681 46.3693 8.98414 46.3693 9.21554C46.3693 9.85466 45.9176 10.2734 45.2784 10.2734C44.6834 10.2734 44.3198 9.99791 44.0663 9.42491C43.5264 7.95934 42.3143 7.33124 40.7275 7.33124C38.8652 7.33124 37.4878 8.23482 37.4878 9.68937C37.4878 10.8464 38.3143 11.6177 40.3749 12.0585L42.1049 12.4221C45.4437 13.1274 46.8101 14.4607 46.8101 16.7748C46.8101 19.772 44.452 21.6563 40.7385 21.6563Z" fill="#979797"/>
<path d="M50.171 25.7114C49.0691 25.7114 48.463 25.3037 48.463 24.5654C48.463 24.0585 48.8156 23.7279 49.3886 23.7279C49.6421 23.7279 49.7302 23.7389 50.0057 23.7389C50.6669 23.7389 51.339 23.3753 51.7688 22.1852L51.9892 21.5131L48.1104 11.3643C48.0222 11.1219 47.9782 10.8795 47.9782 10.6921C47.9782 10.042 48.4961 9.5902 49.1903 9.5902C49.7853 9.5902 50.1269 9.84364 50.3363 10.5048L53.2894 19.2321H53.3225L56.2867 10.5048C56.485 9.85466 56.8156 9.5902 57.4217 9.5902C58.1049 9.5902 58.5787 10.042 58.5787 10.6811C58.5787 10.8684 58.5346 11.1109 58.4575 11.3423L54.4355 21.9759C53.4107 24.7637 52.3198 25.7114 50.171 25.7114Z" fill="#979797"/>
<path d="M61.3666 21.6012C60.6613 21.6012 60.1765 21.1274 60.1765 20.345V10.7913C60.1765 10.064 60.6173 9.5902 61.3115 9.5902C61.9947 9.5902 62.4685 10.064 62.4685 10.8023V11.7169H62.5236C63.1517 10.3946 64.3638 9.60121 66.1489 9.60121C68.7054 9.60121 70.171 11.2321 70.171 13.8877V20.345C70.171 21.1274 69.6751 21.6012 68.9699 21.6012C68.2757 21.6012 67.7798 21.1274 67.7798 20.345V14.3505C67.7798 12.6095 66.9644 11.6508 65.3115 11.6508C63.6366 11.6508 62.5567 12.8409 62.5567 14.637V20.345C62.5567 21.1274 62.0608 21.6012 61.3666 21.6012Z" fill="#979797"/>
<path d="M77.4327 21.6122C74.1159 21.6122 71.9561 19.3092 71.9561 15.6177C71.9561 11.9483 74.1049 9.5902 77.4106 9.5902C79.6476 9.5902 81.5649 10.7803 82.0718 12.4001C82.1379 12.5874 82.182 12.7858 82.182 12.9511C82.182 13.5571 81.7522 13.9318 81.1682 13.9318C80.6613 13.9318 80.3748 13.7334 80.0883 13.2045C79.4933 12.1026 78.6779 11.5737 77.4547 11.5737C75.5925 11.5737 74.3803 13.1274 74.3803 15.5957C74.3803 18.1191 75.6145 19.6177 77.4547 19.6177C78.744 19.6177 79.5263 19.0447 80.0883 18.042C80.4189 17.469 80.6724 17.2706 81.1903 17.2706C81.7743 17.2706 82.204 17.6673 82.204 18.2624C82.204 18.4497 82.16 18.648 82.0718 18.8794C81.4657 20.4772 79.5814 21.6122 77.4327 21.6122Z" fill="#979797"/>
<path d="M88.5952 21.6012C87.7467 21.6012 87.2839 21.2486 86.9533 20.3891L83.5153 11.3423C83.4382 11.1329 83.3831 10.9015 83.3831 10.6811C83.3831 10.0199 83.89 9.5902 84.5842 9.5902C85.1352 9.5902 85.5098 9.88772 85.7082 10.5268L88.5842 19.0668H88.6283L91.5043 10.5048C91.7026 9.88772 92.0773 9.5902 92.6172 9.5902C93.3004 9.5902 93.7853 10.042 93.7853 10.6701C93.7853 10.8795 93.7412 11.1109 93.6641 11.3092L90.2261 20.3891C89.9175 21.2266 89.4106 21.6012 88.5952 21.6012Z" fill="#979797"/>
<path d="M100.088 21.6122C96.5952 21.6122 94.5456 19.3974 94.5456 15.6508C94.5456 11.9704 96.6393 9.5902 99.923 9.5902C103.008 9.5902 105.135 11.8161 105.135 14.9786C105.135 15.75 104.694 16.1907 103.956 16.1907H96.9478V16.2458C96.9478 18.3615 98.1379 19.6839 100.033 19.6839C101.333 19.6839 102.149 19.2321 103.03 18.031C103.284 17.7334 103.526 17.6122 103.868 17.6122C104.441 17.6122 104.86 17.9869 104.86 18.5819C104.86 18.7693 104.794 18.9896 104.694 19.221C103.934 20.7417 102.248 21.6122 100.088 21.6122ZM96.9588 14.5268H102.755C102.7 12.7087 101.565 11.5075 99.912 11.5075C98.2701 11.5075 97.0801 12.7197 96.9588 14.5268Z" fill="#979797"/>
<path d="M108.176 21.6012C107.471 21.6012 106.986 21.1274 106.986 20.345V10.7913C106.986 10.064 107.427 9.5902 108.121 9.5902C108.805 9.5902 109.278 10.064 109.278 10.8023V11.7169H109.333C109.962 10.3946 111.174 9.60121 112.959 9.60121C115.515 9.60121 116.981 11.2321 116.981 13.8877V20.345C116.981 21.1274 116.485 21.6012 115.78 21.6012C115.086 21.6012 114.59 21.1274 114.59 20.345V14.3505C114.59 12.6095 113.774 11.6508 112.121 11.6508C110.446 11.6508 109.367 12.8409 109.367 14.637V20.345C109.367 21.1274 108.871 21.6012 108.176 21.6012Z" fill="#979797"/>
<path d="M119.978 18.615V11.6839H119.141C118.524 11.6839 118.149 11.3312 118.149 10.7472C118.149 10.1522 118.524 9.79956 119.141 9.79956H119.978V8.08055C119.978 7.32022 120.452 6.81334 121.179 6.81334C121.895 6.81334 122.369 7.32022 122.369 8.08055V9.79956H123.725C124.342 9.79956 124.716 10.1632 124.716 10.7472C124.716 11.3312 124.342 11.6839 123.725 11.6839H122.369V18.0861C122.369 19.0117 122.689 19.4304 123.548 19.4965L123.736 19.5075C124.419 19.5737 124.76 19.8491 124.76 20.4111C124.76 21.1274 124.21 21.491 123.041 21.491H122.92C120.97 21.491 119.978 20.5323 119.978 18.615Z" fill="#979797"/>
<path d="M131.229 21.6122C127.912 21.6122 125.73 19.3312 125.73 15.5957C125.73 11.8712 127.923 9.5902 131.229 9.5902C134.535 9.5902 136.727 11.8712 136.727 15.5957C136.727 19.3312 134.546 21.6122 131.229 21.6122ZM131.229 19.6508C133.102 19.6508 134.303 18.1742 134.303 15.5957C134.303 13.0282 133.091 11.5516 131.229 11.5516C129.367 11.5516 128.154 13.0282 128.154 15.5957C128.154 18.1742 129.367 19.6508 131.229 19.6508Z" fill="#979797"/>
<path d="M139.758 21.6012C139.041 21.6012 138.568 21.1164 138.568 20.345V10.7913C138.568 10.064 139.03 9.5902 139.703 9.5902C140.364 9.5902 140.827 10.064 140.827 10.7913V11.783H140.882C141.201 10.4828 142.27 9.61223 143.427 9.61223C143.846 9.61223 144.165 9.71141 144.364 9.89874C144.584 10.075 144.683 10.3615 144.683 10.7362C144.683 11.1109 144.562 11.3863 144.331 11.5737C144.088 11.783 143.736 11.8822 143.24 11.8822C141.609 11.8932 140.948 12.9841 140.948 14.4277V20.345C140.948 21.1164 140.463 21.6012 139.758 21.6012Z" fill="#979797"/>
<path d="M147.405 25.7114C146.303 25.7114 145.697 25.3037 145.697 24.5654C145.697 24.0585 146.05 23.7279 146.623 23.7279C146.876 23.7279 146.964 23.7389 147.24 23.7389C147.901 23.7389 148.573 23.3753 149.003 22.1852L149.223 21.5131L145.344 11.3643C145.256 11.1219 145.212 10.8795 145.212 10.6921C145.212 10.042 145.73 9.5902 146.424 9.5902C147.019 9.5902 147.361 9.84364 147.57 10.5048L150.524 19.2321H150.557L153.521 10.5048C153.719 9.85466 154.05 9.5902 154.656 9.5902C155.339 9.5902 155.813 10.042 155.813 10.6811C155.813 10.8684 155.769 11.1109 155.692 11.3423L151.67 21.9759C150.645 24.7637 149.554 25.7114 147.405 25.7114Z" fill="#979797"/>
<path d="M13.5537 26.5638H21.6272C24.2238 26.5638 26.3287 24.4588 26.3287 21.8622V15.6327C26.3287 13.0361 24.2238 10.9311 21.6272 10.9311H21.3921L13.3457 26.2192C13.2633 26.3758 13.3768 26.5638 13.5537 26.5638Z" fill="#979797"/>
<path d="M0 16.9256C0 16.4063 0.420992 15.9853 0.940312 15.9853H4.70156C9.37543 15.9853 13.1644 19.7742 13.1644 24.4481V26.0936C13.1644 26.3533 12.9539 26.5638 12.6942 26.5638H0.940312C0.420992 26.5638 0 26.1428 0 25.6235V16.9256Z" fill="#979797"/>
<path d="M13.1644 0.940311C13.1644 0.420992 13.5854 0 14.1047 0H25.3884C25.9077 0 26.3287 0.420992 26.3287 0.940312V9.63819C26.3287 10.1575 25.9077 10.5785 25.3884 10.5785H14.1047C13.5854 10.5785 13.1644 10.1575 13.1644 9.63819V0.940311Z" fill="#979797"/>
<path d="M12.775 0H4.70156C2.10496 0 0 2.10496 0 4.70156V10.9311C0 13.5277 2.10496 15.6327 4.70156 15.6327H4.93664L12.983 0.344565C13.0654 0.188024 12.9519 0 12.775 0Z" fill="#979797"/>
</svg>
