<svg width="24" height="24" viewBox="0 0 24 24" fill="none" xmlns="http://www.w3.org/2000/svg">
<path d="M10.7493 22.4996H13.2693C14.2293 22.4996 14.8493 21.8196 14.6693 20.9896L14.2593 19.1797H9.75934L9.34935 20.9896C9.16935 21.7696 9.84934 22.4996 10.7493 22.4996Z" stroke="#7B61FF" stroke-width="1.5" stroke-linecap="round" stroke-linejoin="round"/>
<path d="M14.2596 19.1702L15.9896 17.6301C16.9596 16.7701 16.9996 16.1701 16.2296 15.2001L13.1796 11.3302C12.5396 10.5202 11.4896 10.5202 10.8496 11.3302L7.79957 15.2001C7.02957 16.1701 7.02956 16.8001 8.03956 17.6301L9.76957 19.1702" stroke="#7B61FF" stroke-width="1.5" stroke-linecap="round" stroke-linejoin="round"/>
<path d="M12.0098 11.1211V13.6511" stroke="#7B61FF" stroke-width="1.5" stroke-linecap="round" stroke-linejoin="round"/>
<path d="M12.5195 5H11.5195C10.9695 5 10.5195 4.55 10.5195 4V3C10.5195 2.45 10.9695 2 11.5195 2H12.5195C13.0695 2 13.5195 2.45 13.5195 3V4C13.5195 4.55 13.0695 5 12.5195 5Z" stroke="#7B61FF" stroke-width="1.5" stroke-linecap="round" stroke-linejoin="round"/>
<path d="M3.26953 14.1719H4.26953C4.81953 14.1719 5.26953 13.7219 5.26953 13.1719V12.1719C5.26953 11.6219 4.81953 11.1719 4.26953 11.1719H3.26953C2.71953 11.1719 2.26953 11.6219 2.26953 12.1719V13.1719C2.26953 13.7219 2.71953 14.1719 3.26953 14.1719Z" stroke="#7B61FF" stroke-width="1.5" stroke-linecap="round" stroke-linejoin="round"/>
<path d="M20.7295 14.1719H19.7295C19.1795 14.1719 18.7295 13.7219 18.7295 13.1719V12.1719C18.7295 11.6219 19.1795 11.1719 19.7295 11.1719H20.7295C21.2795 11.1719 21.7295 11.6219 21.7295 12.1719V13.1719C21.7295 13.7219 21.2795 14.1719 20.7295 14.1719Z" stroke="#7B61FF" stroke-width="1.5" stroke-linecap="round" stroke-linejoin="round"/>
<path d="M10.52 3.55859C6.71 4.00859 3.75 7.23858 3.75 11.1686" stroke="#7B61FF" stroke-width="1.5" stroke-linecap="round" stroke-linejoin="round"/>
<path d="M20.2495 11.1686C20.2495 7.24858 17.3095 4.02859 13.5195 3.55859" stroke="#7B61FF" stroke-width="1.5" stroke-linecap="round" stroke-linejoin="round"/>
</svg>
