<svg width="24" height="24" viewBox="0 0 24 24" fill="none" xmlns="http://www.w3.org/2000/svg">
<path d="M10.7493 22.4996H13.2693C14.2293 22.4996 14.8493 21.8196 14.6693 20.9896L14.2594 19.1797H9.75935L9.34935 20.9896C9.16935 21.7696 9.84935 22.4996 10.7493 22.4996Z" stroke="#FF8A3D" stroke-width="1.5" stroke-linecap="round" stroke-linejoin="round"/>
<path d="M14.2596 19.1702L15.9896 17.6301C16.9596 16.7701 16.9996 16.1701 16.2296 15.2001L13.1796 11.3302C12.5396 10.5202 11.4896 10.5202 10.8496 11.3302L7.79957 15.2001C7.02957 16.1701 7.02957 16.8001 8.03957 17.6301L9.76956 19.1702" stroke="#FF8A3D" stroke-width="1.5" stroke-linecap="round" stroke-linejoin="round"/>
<path d="M12.0098 11.1211V13.6511" stroke="#FF8A3D" stroke-width="1.5" stroke-linecap="round" stroke-linejoin="round"/>
<path d="M11.1501 5.19063L10.3701 4.41061C9.90008 3.94061 9.90008 3.18065 10.3701 2.71065L11.1501 1.93062C11.6201 1.46062 12.3801 1.46062 12.8501 1.93062L13.6301 2.71065C14.1001 3.18065 14.1001 3.94061 13.6301 4.41061L12.8501 5.19063C12.3801 5.66063 11.6201 5.66063 11.1501 5.19063Z" stroke="#FF8A3D" stroke-width="1.5" stroke-linecap="round" stroke-linejoin="round"/>
<path d="M19.45 9.80859H20.55C21.21 9.80859 21.75 10.3486 21.75 11.0086V12.1086C21.75 12.7686 21.21 13.3087 20.55 13.3087H19.45C18.79 13.3087 18.25 12.7686 18.25 12.1086V11.0086C18.25 10.3486 18.79 9.80859 19.45 9.80859Z" stroke="#FF8A3D" stroke-width="1.5" stroke-linecap="round" stroke-linejoin="round"/>
<path d="M4.55 9.80859H3.45C2.79 9.80859 2.25 10.3486 2.25 11.0086V12.1086C2.25 12.7686 2.79 13.3087 3.45 13.3087H4.55C5.21 13.3087 5.75 12.7686 5.75 12.1086V11.0086C5.75 10.3486 5.21 9.80859 4.55 9.80859Z" stroke="#FF8A3D" stroke-width="1.5" stroke-linecap="round" stroke-linejoin="round"/>
<path d="M18.5402 10.1008L13.2402 4.80078" stroke="#FF8A3D" stroke-width="1.5" stroke-linecap="round" stroke-linejoin="round"/>
<path d="M5.45996 10.1008L10.76 4.80078" stroke="#FF8A3D" stroke-width="1.5" stroke-linecap="round" stroke-linejoin="round"/>
</svg>
