<svg width="25" height="25" viewBox="0 0 25 25" fill="none" xmlns="http://www.w3.org/2000/svg">
<circle cx="12.5" cy="12.5" r="12" fill="white" stroke="#626262"/>
<path d="M17.1875 9.53125L15.5 10.2625C15.4063 10.0938 15.3125 9.925 15.2 9.775C14.675 9.0625 13.8125 8.70625 12.9125 8.725C11.9937 8.70625 11.15 9.0625 10.625 9.775C10.1 10.4688 9.93125 11.4063 9.9125 12.3438C9.93125 13.2813 10.1 14.2188 10.625 14.9125C11.15 15.6063 11.9937 15.9625 12.9125 15.9625C13.8125 15.9625 14.675 15.6063 15.2 14.9125C15.3125 14.7625 15.3875 14.6125 15.4813 14.4438L17.1875 15.175C17.0375 15.475 16.8687 15.7563 16.6438 16.0188C15.7438 17.125 14.3563 17.7063 12.9125 17.6688C11.45 17.7063 10.0813 17.125 9.18125 16.0188C8.3375 14.9688 8 13.6563 8 12.3438C8 11.0125 8.3375 9.71875 9.18125 8.65C10.1 7.525 11.4688 7 12.9125 7C14.375 7 15.7438 7.5625 16.6438 8.65C16.8687 8.93125 17.0563 9.23125 17.1875 9.53125Z" fill="#626262"/>
</svg>
