<svg width="34" height="34" viewBox="0 0 34 34" fill="none" xmlns="http://www.w3.org/2000/svg">
<rect width="34" height="34" rx="17" fill="black"/>
<path fill-rule="evenodd" clip-rule="evenodd" d="M16.7169 13.3321C18.8988 13.3321 20.6676 15.1009 20.6676 17.2828C20.6676 19.4647 18.8988 21.2335 16.7169 21.2335C14.535 21.2335 12.7662 19.4647 12.7662 17.2828C12.7662 15.1009 14.535 13.3321 16.7169 13.3321ZM16.7169 14.7687C15.3284 14.7687 14.2028 15.8943 14.2028 17.2828C14.2028 18.6713 15.3284 19.7969 16.7169 19.7969C18.1054 19.7969 19.231 18.6713 19.231 17.2828C19.231 15.8943 18.1054 14.7687 16.7169 14.7687Z" fill="white"/>
<path d="M20.8113 12.2546C21.327 12.2546 21.7451 12.6727 21.7451 13.1884C21.7451 13.7042 21.327 14.1222 20.8113 14.1222C20.2955 14.1222 19.8775 13.7042 19.8775 13.1884C19.8775 12.6727 20.2955 12.2546 20.8113 12.2546Z" fill="white"/>
<path fill-rule="evenodd" clip-rule="evenodd" d="M20.057 9.63281C22.4373 9.63281 24.3669 11.5624 24.3669 13.9427V20.623C24.3669 22.9846 22.4673 24.9026 20.1127 24.9325L20.057 24.9328H13.3768L13.3211 24.9325C10.985 24.9029 9.09683 23.0147 9.06725 20.6786L9.06689 20.623V13.9427C9.06689 11.5624 10.9965 9.63281 13.3768 9.63281H20.057ZM13.3768 11.0694C11.7899 11.0694 10.5035 12.3558 10.5035 13.9427V20.623C10.5035 22.2098 11.7899 23.4962 13.3768 23.4962H20.057C21.6439 23.4962 22.9303 22.2098 22.9303 20.623V13.9427C22.9303 12.3558 21.6439 11.0694 20.057 11.0694H13.3768Z" fill="white"/>
</svg>
