<svg width="34" height="34" viewBox="0 0 34 34" fill="none" xmlns="http://www.w3.org/2000/svg">
<rect width="34" height="34" rx="17" fill="black"/>
<path d="M17.5238 14.3398H14.7051V23.8025H17.5142V18.7116C17.5142 18.4815 17.5573 18.2386 17.5765 18.146C17.5861 18.0373 17.6704 17.7241 17.8929 17.379C18.1153 17.0338 18.5096 16.8517 18.679 16.8037C18.8037 16.7702 18.9235 16.7318 19.2878 16.7175C19.5793 16.7059 19.8375 16.783 19.9302 16.8229C20.0404 16.8693 20.3002 17.0108 20.4575 17.2064C20.6147 17.402 20.7179 17.6618 20.7499 17.7673C20.8496 18.0357 20.8841 18.4831 20.8889 18.6733V23.8025H23.813V18.0165C23.8552 16.7433 23.4631 15.8178 23.2618 15.5142C23.0045 15.0365 22.0806 14.0742 20.4431 14.0474C18.8056 14.0205 17.8146 15.0812 17.5238 15.6149V14.3398Z" fill="white"/>
<rect x="9.91162" y="14.3398" width="2.92413" height="9.46269" fill="white"/>
<circle cx="11.3591" cy="11.3586" r="1.72578" fill="white"/>
</svg>
